<svg id="Livello_1" data-name="Livello 1" xmlns="http://www.w3.org/2000/svg" viewBox="0 0 60 60"><defs><style>.cls-1{fill:#c9320e;}</style></defs><title>utility-Tavola disegno 3</title><path d="M24.56,26.41h3.26v3.25a.65.65,0,0,0,.65.65h5.09a.65.65,0,0,0,.65-.65V26.41h3.26a.65.65,0,0,0,.65-.65v-5.1a.65.65,0,0,0-.65-.65H34.21V16.76a.65.65,0,0,0-.65-.65H28.47a.65.65,0,0,0-.65.65V20H24.56a.65.65,0,0,0-.65.65v5.1A.65.65,0,0,0,24.56,26.41Zm.65-5.1h3.26a.66.66,0,0,0,.65-.65V17.41h3.79v3.25a.65.65,0,0,0,.65.65h3.26v3.8H33.56a.65.65,0,0,0-.65.65V29H29.12V25.76a.66.66,0,0,0-.65-.65H25.21Z"/><path d="M57,35.24a7.18,7.18,0,0,0-1.51-4.39A6,6,0,0,0,56,28.53a6.13,6.13,0,0,0-1.32-3.8,5.17,5.17,0,0,0,.36-1.9,5.54,5.54,0,0,0-5.63-5.43,5.75,5.75,0,0,0-3.59,1.25v-7.2h.9a.65.65,0,0,0,.65-.65V7.55a.65.65,0,0,0-.65-.65H37.19V3.65A.65.65,0,0,0,36.54,3H32.25a.65.65,0,0,0-.65.65V6.9H30.16V3.65A.65.65,0,0,0,29.51,3H25.23a.65.65,0,0,0-.65.65V6.9H15.09a.65.65,0,0,0-.64.65V10.8a.65.65,0,0,0,.64.65h1.14v7.2a5.73,5.73,0,0,0-3.59-1.25A5.54,5.54,0,0,0,7,22.83a5.17,5.17,0,0,0,.36,1.9,6.13,6.13,0,0,0-1.32,3.8,6,6,0,0,0,.46,2.32A7.18,7.18,0,0,0,5,35.24a7.49,7.49,0,0,0,7,7.33l0,7.83H5.68a.65.65,0,0,0-.65.65v3.27a.65.65,0,0,0,.65.65H56.35a.65.65,0,0,0,.65-.65V51.05a.65.65,0,0,0-.65-.65H50l0-7.83A7.49,7.49,0,0,0,57,35.24ZM49.36,18.7a4.24,4.24,0,0,1,4.33,4.13,3.84,3.84,0,0,1-.4,1.72.68.68,0,0,0,.1.72,4.84,4.84,0,0,1,.76,5.4.66.66,0,0,0,.09.71,5.89,5.89,0,0,1,1.46,3.86,6.18,6.18,0,0,1-5.7,6V38l2.16-2.23a.65.65,0,0,0,0-.92.66.66,0,0,0-.92,0L50,36.13V33.6a.65.65,0,0,0-.64-.65h0a.66.66,0,0,0-.65.64v2.64l-1.31-1.36a.65.65,0,0,0-.94.91l2.24,2.31v3.17a6.16,6.16,0,0,1-5.67-6,5.77,5.77,0,0,1,1.06-3.35,4.91,4.91,0,0,1,.39-.51.66.66,0,0,0,.1-.71,4.75,4.75,0,0,1-.51-2.14,4.91,4.91,0,0,1,1.26-3.26.64.64,0,0,0,.1-.72,4,4,0,0,1-.4-1.72c0-.07,0-.14,0-.21A4.23,4.23,0,0,1,49.36,18.7ZM32.9,4.3h3V6.9h-3Zm-7,0h3V6.9h-3ZM15.74,8.2H46v2H15.74Zm28.73,3.25v8.7a5.31,5.31,0,0,0-.73,2.41c0,.09,0,.18,0,.27a5.17,5.17,0,0,0,.36,1.9,6.18,6.18,0,0,0-.86,6.12l-.21.29a7.12,7.12,0,0,0-1.29,4.1,7.25,7.25,0,0,0,2.74,5.64V47H38.71V35.62a.65.65,0,0,0-.65-.65H23.71a.65.65,0,0,0-.65.65V47H17.53V40.88a7.22,7.22,0,0,0,2.74-5.64A7.12,7.12,0,0,0,19,31.14l-.21-.29a6.11,6.11,0,0,0-.86-6.12,5.17,5.17,0,0,0,.36-1.9c0-.09,0-.18,0-.27a5.39,5.39,0,0,0-.73-2.42V11.45Zm1.4,39H15.78V48.31H45.87ZM37.41,47h-13V36.27h13ZM6.3,35.24a5.89,5.89,0,0,1,1.46-3.86.66.66,0,0,0,.09-.71,4.84,4.84,0,0,1,.76-5.4.68.68,0,0,0,.1-.72,3.87,3.87,0,0,1-.4-1.72,4.24,4.24,0,0,1,4.33-4.13A4.23,4.23,0,0,1,17,22.62a1.48,1.48,0,0,1,0,.21,4,4,0,0,1-.4,1.72.64.64,0,0,0,.1.72,4.84,4.84,0,0,1,.76,5.4.64.64,0,0,0,.09.71,4.91,4.91,0,0,1,.39.51A5.78,5.78,0,0,1,19,35.24a6.17,6.17,0,0,1-5.68,6V38.09l2.24-2.31a.65.65,0,0,0,0-.92.66.66,0,0,0-.92,0l-1.31,1.36V33.59a.65.65,0,0,0-.65-.64h0a.65.65,0,0,0-.65.65v2.53l-1.22-1.26a.66.66,0,0,0-.92,0,.65.65,0,0,0,0,.92L12,38v3.26A6.18,6.18,0,0,1,6.3,35.24Zm7,7.32a7.53,7.53,0,0,0,2.93-.83V47h-1.1a.65.65,0,0,0-.65.65V50.4H13.33ZM55.7,53.67H6.33v-2H55.7ZM47.17,50.4V47.66a.65.65,0,0,0-.65-.65h-.75V41.73a7.63,7.63,0,0,0,2.93.83l0,7.84Z"/><path class="cls-1" d="M24.56,26.41h3.26v3.25a.65.65,0,0,0,.65.65h5.09a.65.65,0,0,0,.65-.65V26.41h3.26a.65.65,0,0,0,.65-.65v-5.1a.65.65,0,0,0-.65-.65H34.21V16.76a.65.65,0,0,0-.65-.65H28.47a.65.65,0,0,0-.65.65V20H24.56a.65.65,0,0,0-.65.65v5.1A.65.65,0,0,0,24.56,26.41Zm.65-5.1h3.26a.66.66,0,0,0,.65-.65V17.41h3.79v3.25a.65.65,0,0,0,.65.65h3.26v3.8H33.56a.65.65,0,0,0-.65.65V29H29.12V25.76a.66.66,0,0,0-.65-.65H25.21Z"/></svg>