<?xml version="1.0" encoding="utf-8"?>
<!-- Generator: Adobe Illustrator 22.1.0, SVG Export Plug-In . SVG Version: 6.00 Build 0)  -->
<svg version="1.1" id="Livello_1" xmlns="http://www.w3.org/2000/svg" xmlns:xlink="http://www.w3.org/1999/xlink" x="0px" y="0px"
	 viewBox="0 0 60 60" style="enable-background:new 0 0 60 60;" xml:space="preserve">
<style type="text/css">
	.st0{fill:#F48806;}
	.st1{fill:#EFC307;}
	.st2{fill:#C9320E;}
	.st3{fill:#3D8C35;}
	.st4{fill:#3C97A0;}
	.st5{fill:#990CBC;}
	.st6{fill:#EDC10C;}
</style>
<path d="M53.4,11.9h-17V6.6c0-0.3-0.3-0.6-0.6-0.6H7.6C7.3,6,7,6.3,7,6.6v39.9c0,0.3,0.3,0.6,0.6,0.6h17v5.3c0,0.3,0.3,0.6,0.6,0.6
	h28.2c0.3,0,0.6-0.3,0.6-0.6V12.5C54,12.2,53.7,11.9,53.4,11.9z M48.1,13.1c0,0.2-0.1,0.4-0.1,0.7c-0.1,0.3,0.1,0.6,0.5,0.7
	c0,0,0.1,0,0.1,0c0.3,0,0.5-0.2,0.6-0.5c0.1-0.4,0.1-0.7,0.2-1h3.6v30.3c-0.9-0.6-2.8-2.3-4.7-6.4c0.3-0.2,0.5-0.5,0.8-0.7
	c0.2-0.2,0.3-0.6,0.1-0.8c-0.2-0.2-0.6-0.3-0.8-0.1c-0.2,0.2-0.3,0.3-0.5,0.5c-0.5-1.3-1.1-2.9-1.6-4.6c-2.9-10.1-8.3-12.3-9.7-12.6
	v-5.5H48.1z M8.2,7.2h27v38.7h-27V7.2z M33.5,47.1l-7.7,4.3v-4.3H33.5z M40.7,51.8c0-0.2,0.1-0.4,0.1-0.7c0.1-0.3-0.2-0.6-0.5-0.7
	c-0.3-0.1-0.6,0.2-0.7,0.5c-0.1,0.4-0.1,0.7-0.1,0.9H27.4l8.7-4.8c0,0,0,0,0.1,0c0,0,0.1,0,0.1-0.1c0,0,0-0.1,0.1-0.1
	c0,0,0-0.1,0.1-0.1c0,0,0-0.1,0-0.1c0,0,0,0,0-0.1V19.8c0.6,0.2,1.6,0.7,2.8,1.7c0.9,0.8,2,2,3.1,3.8c-0.2,0.2-0.3,0.4-0.5,0.6
	c-0.2,0.2-0.2,0.6,0,0.8c0.1,0.1,0.3,0.2,0.4,0.2c0.2,0,0.3-0.1,0.4-0.2c0.1-0.1,0.2-0.2,0.3-0.3c0.7,1.4,1.4,3.1,2,5.1
	c2.9,10.4,7.1,12.9,7.9,13.3v7H40.7z"/>
<path d="M50.4,35c0.1,0,0.2,0,0.3-0.1c0.3-0.2,0.6-0.4,1-0.6c0.3-0.2,0.4-0.5,0.2-0.8c-0.2-0.3-0.5-0.4-0.8-0.2
	c-0.3,0.2-0.7,0.4-1,0.7c-0.3,0.2-0.3,0.5-0.2,0.8C50,34.9,50.2,35,50.4,35z"/>
<path d="M45.6,38c-0.3,0.3-0.5,0.6-0.8,0.9c-0.2,0.3-0.1,0.6,0.1,0.8c0.1,0.1,0.2,0.1,0.4,0.1c0.2,0,0.4-0.1,0.5-0.2
	c0.2-0.3,0.5-0.6,0.7-0.9c0.2-0.2,0.2-0.6-0.1-0.8C46.2,37.7,45.8,37.7,45.6,38z"/>
<path d="M42.6,43.8c-0.3-0.1-0.6,0-0.8,0.3c-0.2,0.4-0.3,0.7-0.5,1.1c-0.1,0.3,0,0.6,0.3,0.8c0.1,0,0.1,0,0.2,0
	c0.2,0,0.5-0.1,0.5-0.4c0.1-0.3,0.3-0.7,0.4-1.1C43,44.3,42.9,43.9,42.6,43.8z"/>
<path d="M44.3,40.7c-0.3-0.2-0.6-0.1-0.8,0.2c-0.2,0.3-0.4,0.7-0.6,1c-0.2,0.3-0.1,0.6,0.2,0.8c0.1,0,0.2,0.1,0.3,0.1
	c0.2,0,0.4-0.1,0.5-0.3c0.2-0.3,0.4-0.7,0.6-1C44.6,41.2,44.6,40.9,44.3,40.7z"/>
<path d="M37.3,29.4L37,29.6c-0.3,0.2-0.4,0.5-0.2,0.8c0.1,0.2,0.3,0.3,0.5,0.3c0.1,0,0.2,0,0.3-0.1l0.3-0.2c0.3-0.2,0.4-0.5,0.2-0.8
	C37.9,29.3,37.6,29.2,37.3,29.4z"/>
<path d="M40.9,27.5c-0.2-0.2-0.6-0.3-0.8-0.1c-0.3,0.2-0.6,0.5-0.9,0.7c-0.3,0.2-0.3,0.6-0.1,0.8c0.1,0.2,0.3,0.2,0.5,0.2
	c0.1,0,0.2,0,0.3-0.1c0.3-0.2,0.6-0.5,1-0.7C41.1,28.2,41.1,27.8,40.9,27.5z"/>
<path d="M44.5,24.2c0.2,0,0.4-0.1,0.5-0.2c0.2-0.3,0.5-0.7,0.7-1c0.2-0.3,0.1-0.6-0.2-0.8c-0.3-0.2-0.6-0.1-0.8,0.2
	c-0.2,0.3-0.4,0.6-0.6,1c-0.2,0.3-0.1,0.6,0.1,0.8C44.2,24.2,44.3,24.2,44.5,24.2z"/>
<path d="M46,21.1c0.1,0,0.2,0.1,0.3,0.1c0.2,0,0.4-0.1,0.5-0.3c0.2-0.4,0.4-0.7,0.5-1.1c0.1-0.3,0-0.6-0.3-0.8
	c-0.3-0.1-0.6,0-0.8,0.3c-0.2,0.3-0.3,0.7-0.5,1C45.6,20.6,45.7,21,46,21.1z"/>
<path d="M47.4,17.9c0.1,0,0.1,0,0.2,0c0.2,0,0.5-0.2,0.6-0.4c0.1-0.4,0.3-0.8,0.4-1.1c0.1-0.3-0.1-0.6-0.4-0.7
	c-0.3-0.1-0.6,0.1-0.7,0.4c-0.1,0.3-0.2,0.7-0.3,1.1C47,17.5,47.1,17.8,47.4,17.9z"/>
<path class="st6" d="M16.9,25.9c0,2.6,2.1,4.8,4.8,4.8s4.8-2.1,4.8-4.8s-2.1-4.8-4.8-4.8S16.9,23.3,16.9,25.9z M25.3,25.9
	c0,2-1.6,3.6-3.6,3.6s-3.6-1.6-3.6-3.6s1.6-3.6,3.6-3.6S25.3,23.9,25.3,25.9z"/>
<path class="st6" d="M21.7,18.8c0.3,0,0.6-0.3,0.6-0.6v-2.7c0-0.3-0.3-0.6-0.6-0.6s-0.6,0.3-0.6,0.6v2.7
	C21.1,18.5,21.4,18.8,21.7,18.8z"/>
<path class="st6" d="M17.3,19.5c0.1,0.2,0.3,0.3,0.5,0.3c0.1,0,0.2,0,0.3-0.1c0.3-0.2,0.4-0.5,0.2-0.8L17,16.6
	c-0.2-0.3-0.5-0.4-0.8-0.2c-0.3,0.2-0.4,0.5-0.2,0.8L17.3,19.5z"/>
<path class="st6" d="M15.3,21.5L13,20.2c-0.3-0.2-0.6-0.1-0.8,0.2s-0.1,0.6,0.2,0.8l2.3,1.3c0.1,0.1,0.2,0.1,0.3,0.1
	c0.2,0,0.4-0.1,0.5-0.3C15.7,22.1,15.6,21.7,15.3,21.5z"/>
<path class="st6" d="M14.6,25.9c0-0.3-0.3-0.6-0.6-0.6h-2.7c-0.3,0-0.6,0.3-0.6,0.6s0.3,0.6,0.6,0.6H14
	C14.3,26.5,14.6,26.2,14.6,25.9z"/>
<path class="st6" d="M14.7,29.2l-2.3,1.3c-0.3,0.2-0.4,0.5-0.2,0.8c0.1,0.2,0.3,0.3,0.5,0.3c0.1,0,0.2,0,0.3-0.1l2.3-1.3
	c0.3-0.2,0.4-0.5,0.2-0.8C15.4,29.2,15,29.1,14.7,29.2z"/>
<path class="st6" d="M18.1,32c-0.3-0.2-0.6-0.1-0.8,0.2L16,34.6c-0.2,0.3-0.1,0.6,0.2,0.8c0.1,0.1,0.2,0.1,0.3,0.1
	c0.2,0,0.4-0.1,0.5-0.3l1.3-2.3C18.5,32.6,18.4,32.2,18.1,32z"/>
<path class="st6" d="M21.7,33c-0.3,0-0.6,0.3-0.6,0.6v2.7c0,0.3,0.3,0.6,0.6,0.6s0.6-0.3,0.6-0.6v-2.7C22.3,33.3,22,33,21.7,33z"/>
<path class="st6" d="M26,32.3c-0.2-0.3-0.5-0.4-0.8-0.2c-0.3,0.2-0.4,0.5-0.2,0.8l1.3,2.3c0.1,0.2,0.3,0.3,0.5,0.3
	c0.1,0,0.2,0,0.3-0.1c0.3-0.2,0.4-0.5,0.2-0.8L26,32.3z"/>
<path class="st6" d="M30.9,30.6l-2.3-1.3c-0.3-0.2-0.6-0.1-0.8,0.2c-0.2,0.3-0.1,0.6,0.2,0.8l2.3,1.3c0.1,0.1,0.2,0.1,0.3,0.1
	c0.2,0,0.4-0.1,0.5-0.3C31.3,31.1,31.2,30.7,30.9,30.6z"/>
<path class="st6" d="M32,25.3h-2.7c-0.3,0-0.6,0.3-0.6,0.6s0.3,0.6,0.6,0.6H32c0.3,0,0.6-0.3,0.6-0.6S32.4,25.3,32,25.3z"/>
<path class="st6" d="M28.3,22.6c0.1,0,0.2,0,0.3-0.1l2.3-1.3c0.3-0.2,0.4-0.5,0.2-0.8c-0.2-0.3-0.5-0.4-0.8-0.2L28,21.5
	c-0.3,0.2-0.4,0.5-0.2,0.8C27.9,22.5,28.1,22.6,28.3,22.6z"/>
<path class="st6" d="M27.2,16.4c-0.3-0.2-0.6-0.1-0.8,0.2L25,18.9c-0.2,0.3-0.1,0.6,0.2,0.8c0.1,0.1,0.2,0.1,0.3,0.1
	c0.2,0,0.4-0.1,0.5-0.3l1.3-2.3C27.5,16.9,27.4,16.6,27.2,16.4z"/>
</svg>
