<svg id="Livello_1" data-name="Livello 1" xmlns="http://www.w3.org/2000/svg" viewBox="0 0 60 60"><defs><style>.cls-1{fill:#3c97a0;}</style></defs><title>utility-Tavola disegno 5</title><path d="M57.34,51.84H51.67l-1.41-4.37,7.46-5.21A.66.66,0,0,0,57,41.18h0l-7.68,5.4H30.93a.66.66,0,1,0,0,1.31h4l-1.32,4H23.12L33.3,28.6a6.5,6.5,0,0,1,2.88,3.3.61.61,0,0,0,.36.36h0a.66.66,0,0,0,.61,0A6.59,6.59,0,0,1,45.51,36h0a.76.76,0,0,0,.12.19l0,0a.65.65,0,0,0,.15.1h0a.6.6,0,0,0,.23.06h0a.78.78,0,0,0,.22,0h0l.16-.1,0,0a.8.8,0,0,0,.13-.19,15.91,15.91,0,0,0-7.48-20.73L41,11.17a.66.66,0,0,0-1.2-.53l-1.85,4.15a15.94,15.94,0,0,0-20.42,8.43h0a.66.66,0,0,0,.34.86h0a.64.64,0,0,0,.47,0,6.55,6.55,0,0,1,8.47,3.73.65.65,0,0,0,.35.36h.25a.59.59,0,0,0,.23,0h0A6.49,6.49,0,0,1,32,28L21.65,51.84H14.94a.66.66,0,0,0,0,1.32h42.4a.66.66,0,0,0,0-1.32ZM45.76,24.33A14.53,14.53,0,0,1,46,34.17,7.91,7.91,0,0,0,38,30.67c2-4.87,3.07-10.08,2.35-13.17A14.51,14.51,0,0,1,45.76,24.33ZM23.92,23a7.83,7.83,0,0,0-4.53-.55,14.67,14.67,0,0,1,16.17-7,12.18,12.18,0,0,0-2.87,2.43,35,35,0,0,0-5.27,8.22A7.76,7.76,0,0,0,23.91,23Zm4.77,3.56a33.3,33.3,0,0,1,5-7.83c1.79-2,3.41-2.91,4.34-2.49h0c1.8.81,1.64,6.58-1.31,13.87A7.86,7.86,0,0,0,28.69,26.57Zm7.67,21.32H49l1.28,4H35Z"/><path class="cls-1" d="M6.08,43.54a5.45,5.45,0,0,0,3.4-1.19,5.48,5.48,0,0,0,6.81,0,5.41,5.41,0,0,0,3.4,1.18h0a5.41,5.41,0,0,0,3.87-1.6.66.66,0,1,0-.93-.93,4.16,4.16,0,0,1-5.88,0,.65.65,0,0,0-.93,0,4.16,4.16,0,0,1-5.88,0A.65.65,0,0,0,9,41H9a4.16,4.16,0,0,1-2.94,1.22h0A4.16,4.16,0,0,1,3.13,41a.66.66,0,0,0-.94,0,.68.68,0,0,0,0,.95,5.51,5.51,0,0,0,3.87,1.6Z"/><path class="cls-1" d="M19.24,46a4.18,4.18,0,0,1-5.89,0,.64.64,0,0,0-.92,0h0a4.14,4.14,0,0,1-2.95,1.2h0A4.11,4.11,0,0,1,6.54,46a.66.66,0,0,0-.9,1h0a5.41,5.41,0,0,0,3.84,1.57h0a5.46,5.46,0,0,0,3.4-1.17,5.4,5.4,0,0,0,3.41,1.17h0a5.4,5.4,0,0,0,3.87-1.61.65.65,0,0,0,0-.93.66.66,0,0,0-.93,0Z"/></svg>