<svg id="Livello_1" data-name="Livello 1" xmlns="http://www.w3.org/2000/svg" viewBox="0 0 60 60"><defs><style>.cls-1{fill:#f48806;}</style></defs><title>utility-Tavola disegno 1</title><circle class="cls-1" cx="15.61" cy="43.05" r="8.35"/><path d="M56.16,21.66H4.51a.84.84,0,0,1-.84-.83.81.81,0,0,1,.12-.42l8.33-15A.83.83,0,0,1,12.84,5h35a.84.84,0,0,1,.73.42l8.33,15a.84.84,0,0,1-.31,1.14A.88.88,0,0,1,56.16,21.66ZM5.93,20H54.74L47.34,6.67h-34Z"/><path d="M47.83,35.4a.83.83,0,0,1-.83-.83V21.66H13.68v11a.85.85,0,0,1-.84.84.84.84,0,0,1-.83-.84V20.83a.84.84,0,0,1,.83-.84h35a.84.84,0,0,1,.83.84V34.57A.83.83,0,0,1,47.83,35.4Z"/><path d="M15.34,55A11.66,11.66,0,1,1,27,43.32,11.66,11.66,0,0,1,15.34,55Zm0-21.66a10,10,0,1,0,10,10A10,10,0,0,0,15.34,33.32Z"/><path d="M52.54,55H41.45a.83.83,0,0,1-.77-.51,22,22,0,0,1-2-8.65,23.12,23.12,0,0,1,2-8.65.85.85,0,0,1,.78-.52H52.54a.84.84,0,0,1,.8.59c.15.49.32,1,.48,1.48a22.18,22.18,0,0,1,1.51,7.1,23.59,23.59,0,0,1-1.62,7.49c-.13.38-.26.75-.37,1.11A.86.86,0,0,1,52.54,55ZM42,53.31h9.94l.18-.55a22.1,22.1,0,0,0,1.54-6.94,20.63,20.63,0,0,0-1.42-6.57l-.31-.93H42a20.51,20.51,0,0,0-1.67,7.5A20,20,0,0,0,42,53.31Z"/><path d="M8.82,26a5.14,5.14,0,0,1-5.14-5.13A.84.84,0,0,1,4.51,20a.85.85,0,0,1,.84.84,3.47,3.47,0,0,0,6.94,0,.84.84,0,0,1,.83-.84.85.85,0,0,1,.84.84A5.15,5.15,0,0,1,8.82,26Z"/><path d="M17.43,26a5.14,5.14,0,0,1-5.14-5.13.84.84,0,0,1,.83-.84.85.85,0,0,1,.84.84,3.47,3.47,0,0,0,6.94,0,.84.84,0,0,1,.83-.84.85.85,0,0,1,.84.84A5.15,5.15,0,0,1,17.43,26Z"/><path d="M26,26a5.13,5.13,0,0,1-5.13-5.13.83.83,0,1,1,1.66,0,3.47,3.47,0,1,0,6.94,0h0a.85.85,0,0,1,.84-.84.84.84,0,0,1,.83.84A5.14,5.14,0,0,1,26,26Z"/><path d="M34.64,26a5.15,5.15,0,0,1-5.14-5.13.85.85,0,0,1,.84-.84.84.84,0,0,1,.83.84,3.47,3.47,0,0,0,6.94,0h0A.85.85,0,0,1,39,20a.84.84,0,0,1,.83.84A5.14,5.14,0,0,1,34.64,26Z"/><path d="M43.25,26a5.14,5.14,0,0,1-5.14-5.13A.85.85,0,0,1,39,20a.84.84,0,0,1,.83.84,3.47,3.47,0,0,0,6.94,0h0a.84.84,0,0,1,.83-.84.85.85,0,0,1,.84.84A5.15,5.15,0,0,1,43.25,26Z"/><path d="M51.86,26a5.14,5.14,0,0,1-5.14-5.13.83.83,0,1,1,1.66,0,3.48,3.48,0,0,0,6.95,0h0a.83.83,0,1,1,1.66,0A5.13,5.13,0,0,1,51.86,26Z"/><path d="M39.76,51.65H23.26a.85.85,0,0,1-.84-.84.84.84,0,0,1,.84-.83h16.5a.84.84,0,0,1,.84.83A.85.85,0,0,1,39.76,51.65Z"/><path d="M47.83,37.94A.84.84,0,0,1,47,37.1V35H21.17a.84.84,0,0,1-.83-.84.83.83,0,0,1,.83-.83H47.83a.83.83,0,0,1,.83.83v3A.84.84,0,0,1,47.83,37.94Z"/><path d="M15.34,46.65a3.33,3.33,0,1,1,3.34-3.33A3.33,3.33,0,0,1,15.34,46.65Zm0-5A1.67,1.67,0,1,0,17,43.32,1.66,1.66,0,0,0,15.34,41.65Z"/><path d="M15.34,41.65a.83.83,0,0,1-.83-.83V32.49a.83.83,0,0,1,.83-.83.84.84,0,0,1,.84.83v8.33A.84.84,0,0,1,15.34,41.65Z"/><path d="M15.34,55a.83.83,0,0,1-.83-.83V45.82a.84.84,0,0,1,.83-.84.85.85,0,0,1,.84.84v8.33A.84.84,0,0,1,15.34,55Z"/><path d="M13.18,42.9a.88.88,0,0,1-.42-.11L5.55,38.62a.83.83,0,0,1,.77-1.47l.06,0,7.21,4.17a.84.84,0,0,1,.31,1.14A.85.85,0,0,1,13.18,42.9Z"/><path d="M24.72,49.56a.78.78,0,0,1-.42-.11l-7.21-4.16a.83.83,0,0,1,.77-1.48l.06,0L25.14,48a.84.84,0,0,1,.3,1.14A.82.82,0,0,1,24.72,49.56Z"/><path d="M6,49.56a.83.83,0,0,1-.83-.83A.84.84,0,0,1,5.55,48l7.22-4.16a.83.83,0,0,1,1.15.25.84.84,0,0,1-.26,1.15l-.06,0L6.38,49.45A.74.74,0,0,1,6,49.56Z"/><path d="M17.51,42.9a.83.83,0,0,1-.83-.83.84.84,0,0,1,.41-.72l7.22-4.17a.83.83,0,0,1,.89,1.41l-.06,0-7.21,4.17A.88.88,0,0,1,17.51,42.9Z"/><path d="M53.24,41.65H40.75a.83.83,0,0,1,0-1.66H53.24a.83.83,0,1,1,0,1.66Z"/><path d="M53.24,51.65H40.75a.84.84,0,0,1-.83-.84.83.83,0,0,1,.83-.83H53.24a.84.84,0,0,1,.84.83A.85.85,0,0,1,53.24,51.65Z"/></svg>