<svg id="Livello_1" data-name="Livello 1" xmlns="http://www.w3.org/2000/svg" viewBox="0 0 60 60"><defs><style>.cls-1{fill:#3d8c35;}</style></defs><title>utility-Tavola disegno 4</title><path d="M31.5,50.26h19a.8.8,0,0,0,.79-.79v-19a.79.79,0,0,0-.79-.79h-19a.79.79,0,0,0-.79.79v19A.79.79,0,0,0,31.5,50.26Zm.79-19H49.68v6.32H48.1v-4a.79.79,0,0,0-.79-.79H41a.79.79,0,0,0-.79.79v4H38.61v-4a.79.79,0,0,0-.79-.79H34.66a.79.79,0,0,0-.79.79v4H32.29Zm14.23,3.16v3.16H44.94V34.45Zm-3.17,0v3.16H41.77V34.45Zm-6.32,0v3.16H35.45V34.45Zm-4.74,4.74H49.68v6.33H48.1v-4a.8.8,0,0,0-.79-.79H42.56a.8.8,0,0,0-.79.79v4H40.19v-4a.79.79,0,0,0-.79-.79H34.66a.79.79,0,0,0-.79.79v4H32.29Zm14.23,3.16v3.17H43.35V42.35Zm-7.91,0v3.17H35.45V42.35ZM32.29,47.1H49.68v1.58H32.29Z"/><rect x="22.81" y="42.35" width="1.58" height="3.16"/><rect x="16.48" y="42.35" width="1.58" height="3.16"/><path class="cls-1" d="M29.13,17.06v2.38a.79.79,0,0,0,.79.79h3.16a.79.79,0,0,0,.79-.79V17.06h2.37a.79.79,0,0,0,.79-.79V13.11a.79.79,0,0,0-.79-.79H33.87V10a.79.79,0,0,0-.79-.79H29.92a.79.79,0,0,0-.79.79v2.37H26.76a.79.79,0,0,0-.79.79v3.16a.79.79,0,0,0,.79.79ZM27.55,13.9h2.37a.79.79,0,0,0,.79-.79V10.74h1.58v2.37a.79.79,0,0,0,.79.79h2.37v1.58H33.08a.79.79,0,0,0-.79.79v2.38H30.71V16.27a.79.79,0,0,0-.79-.79H27.55Z"/><path d="M55.21,13.9H40.15a8.69,8.69,0,0,0-17.3,0H7.79a.79.79,0,0,0-.79.79V25.76a.79.79,0,0,0,.79.79h.79V54.21a.79.79,0,0,0,.79.79H53.63a.79.79,0,0,0,.79-.79V26.55h.79a.79.79,0,0,0,.79-.79V14.69A.79.79,0,0,0,55.21,13.9ZM31.5,7.58a7.12,7.12,0,1,1-7.11,7.11A7.11,7.11,0,0,1,31.5,7.58ZM19.65,53.42H13.32v-19h6.33Zm7.9,0H21.23v-19h6.32Zm25.29,0H29.13V33.66a.79.79,0,0,0-.79-.79H12.53a.79.79,0,0,0-.79.79V53.42H10.16V26.55H52.84ZM54.42,25H8.58V15.48H22.85a8.68,8.68,0,0,0,17.3,0H54.42Z"/></svg>