<svg id="Livello_1" data-name="Livello 1" xmlns="http://www.w3.org/2000/svg" viewBox="0 0 60 60"><defs><style>.cls-1{fill:#990cbc;}</style></defs><title>utility-Tavola disegno 6</title><path class="cls-1" d="M22.66,31.9a2.77,2.77,0,1,0,2.77,2.77A2.78,2.78,0,0,0,22.66,31.9Zm0,3.74a1,1,0,1,1,1-1A1,1,0,0,1,22.66,35.64Z"/><path class="cls-1" d="M38.34,32.11a2.77,2.77,0,1,0,2.77,2.77A2.77,2.77,0,0,0,38.34,32.11Zm0,3.74a1,1,0,1,1,1-1A1,1,0,0,1,38.34,35.85Z"/><path d="M45.46,38.87V26.18a1.87,1.87,0,0,0-.08-.5L41.9,15.21a1.64,1.64,0,0,0-1.55-1.11H35.57l-.9-.86a1.64,1.64,0,0,0-1.11-.47H26.44a1.72,1.72,0,0,0-1.15.47l-.87.86H20.61a1.61,1.61,0,0,0-1.54,1.11L15.58,25.68a1.24,1.24,0,0,0-.07.5V38.87a3.85,3.85,0,0,0,3.84,3.85h1.84l-5.36,8.34,1.51,1,1.08-1.69H42.51L43.59,52l1.51-1-5.32-8.34h1.83A3.86,3.86,0,0,0,45.46,38.87Zm-28.12,0V26.22L20.79,15.9h3.74a1.72,1.72,0,0,0,1.15-.47l.87-.86h7l.9.86a1.64,1.64,0,0,0,1.11.47h4.75l3.45,10.32V38.87a2.07,2.07,0,0,1-2,2.05H19.39A2,2,0,0,1,17.34,38.87Zm2.27,9.67,1.25-2H40.1l1.26,2ZM39,44.77H22l1.33-2.05h14.3Z"/><path d="M41.86,24.2l-1.72-6.43a1.58,1.58,0,0,0-1.55-1.19H22.45a1.62,1.62,0,0,0-1.55,1.19l-1.73,6.47a1.53,1.53,0,0,0,.29,1.4,1.69,1.69,0,0,0,1.3.65H40.32a1.58,1.58,0,0,0,1.29-.65A1.73,1.73,0,0,0,41.86,24.2Zm-20.92.22,1.65-6.08H38.41L40,24.42Z"/><polygon points="11.37 15.43 11.37 51.96 13.17 51.96 13.17 14.89 30.5 9.75 47.83 14.89 47.83 51.96 49.63 51.96 49.63 15.43 51.5 15.97 52 14.24 30.5 7.88 9 14.24 9.5 15.97 11.37 15.43"/></svg>