<svg id="Livello_1" data-name="Livello 1" xmlns="http://www.w3.org/2000/svg" viewBox="0 0 60 60"><defs><style>.cls-1{fill:#efc307;}</style></defs><title>utility-Tavola disegno 2</title><path d="M49.26,35.23c-1.25-2.63-3-8.18-5-16.06A11.54,11.54,0,0,0,38.82,12a7.76,7.76,0,0,0-15.43-.09,11.47,11.47,0,0,0-5.61,7.29c-2,7.88-3.73,13.43-5,16.06a35.06,35.06,0,0,0-2.78,8,3.05,3.05,0,0,0-.26,1.23c0,4.25,9,6.59,18,7a5.15,5.15,0,0,0,6.73,0c8.95-.43,18-2.78,18-7.05a3.24,3.24,0,0,0-.27-1.23A36.77,36.77,0,0,0,49.26,35.23ZM31.1,7.33a5.44,5.44,0,0,1,5,3.4,17.48,17.48,0,0,0-4.58-.91H30.5a17.06,17.06,0,0,0-4.41.86A5.42,5.42,0,0,1,31.1,7.33ZM14.9,36.23C16.23,33.43,18,27.89,20,19.74c1.65-6.46,8.35-7.44,10.52-7.59a5,5,0,0,1,.95,0c2.17.15,8.87,1.13,10.52,7.59,2.07,8.15,3.8,13.69,5.13,16.49.71,1.49,1.28,2.82,1.74,4.06-4-2-10.9-3-17.72-3s-13.93,1-18,3.06c.22-.64.57-1.62,1.08-2.8C14.61,36.82,14.86,36.31,14.9,36.23Zm11,11.32A5.28,5.28,0,0,0,26.15,49c-9.07-.7-14.06-3.09-14.06-4.61,0-1.89,6.91-4.6,17.84-4.79v2.9A5.18,5.18,0,0,0,25.94,47.55Zm5.16,2.83a2.83,2.83,0,1,1,2.83-2.83A2.83,2.83,0,0,1,31.1,50.38ZM36,49a5.14,5.14,0,0,0-3.45-6.41l-.33-.09v-2.9c10.93.17,17.84,2.89,17.84,4.79C50.1,45.93,45.11,48.34,36,49Z"/><circle class="cls-1" cx="31" cy="47.4" r="4"/></svg>