<?xml version="1.0" encoding="utf-8"?>
<!-- Generator: Adobe Illustrator 24.0.2, SVG Export Plug-In . SVG Version: 6.00 Build 0)  -->
<svg version="1.1" id="Livello_1" xmlns="http://www.w3.org/2000/svg" xmlns:xlink="http://www.w3.org/1999/xlink" x="0px" y="0px"
	 viewBox="0 0 85 85" style="enable-background:new 0 0 85 85;" xml:space="preserve">
<style type="text/css">
	.st0{fill:#6C6C6C;}
</style>
<g>
	<path class="st0" d="M23.2,55.3h14c0.9,0,1.7-0.7,1.7-1.7c0-0.9-0.7-1.7-1.7-1.7h-14c-0.9,0-1.7,0.8-1.7,1.7S22.2,55.3,23.2,55.3
		 M47.2,54.8c0,0.9,0.7,1.7,1.7,1.7H61c0.6,0,1.1-0.3,1.4-0.8c0.3-0.5,0.3-1.1,0.1-1.6L50.4,27.8c-0.3-0.7-1.1-1.1-1.9-0.9
		s-1.3,0.8-1.3,1.6v21.6c0,0.9,0.7,1.7,1.7,1.7c0.9,0,1.7-0.8,1.7-1.7v-14l7.9,17.1h-9.5C48,53.2,47.2,53.9,47.2,54.8 M18,67.5
		c0.3,0.6,0.9,0.9,1.5,0.9l0.8-0.2c0.8-0.4,1.1-1.4,0.7-2.3l-2-3.8h23.6l0.2,0l0.2,0h20.7c-0.7,0.6-1.4,1.2-2.1,1.6
		c-0.8,0.4-1.1,1.5-0.7,2.3c0.3,0.6,0.9,0.8,1.5,0.8l0.8-0.2c1.9-1.1,3.6-2.8,5.1-4.3l0.7-0.7c0.5-0.5,0.6-1.2,0.4-1.8
		c-0.3-0.6-0.9-1-1.5-1H44.6V48.5c0-0.9-0.8-1.7-1.7-1.7l-0.2,0l-0.2,0H30c1.1-6.5,3.9-17.2,11.3-28.8v25.4c0,0.9,0.7,1.7,1.7,1.7
		c0.9,0,1.7-0.7,1.7-1.7V12.6c0-0.7-0.5-1.4-1.2-1.6s-1.4,0-1.9,0.6C30.7,26.6,27.4,41,26.4,48.2v0.1l0,0.1v0.1l0,0.2l0,0.2l0,0.2
		l0.1,0.2l0.1,0.2l0.1,0.1l0.1,0.1l0.1,0.1l0.1,0.1l0.1,0.1l0.2,0.1l0.1,0.1l0.1,0l0.2,0l0.1,0l0.2,0h0h13.2v8.7H16.1
		c-0.6,0-1.1,0.3-1.4,0.8s-0.3,1.1,0,1.6L18,67.5z M81.2,70.8c-2.6,0-5-1.2-6.3-3.1c-0.3-0.4-0.8-0.7-1.4-0.7
		c-0.6,0-1.1,0.3-1.4,0.7c-1.3,1.9-3.7,3.1-6.3,3.1c-2.8,0-5.4-1.4-6.6-3.6c-0.3-0.5-0.8-0.9-1.5-0.9s-1.2,0.3-1.5,0.9
		c-1.2,2.2-3.8,3.6-6.6,3.6c-2.6,0-5-1.2-6.3-3.1c-0.3-0.4-0.8-0.7-1.4-0.7s-1.1,0.3-1.4,0.7c-1.3,1.9-3.7,3.1-6.3,3.1
		c-2.6,0-5-1.2-6.3-3.1c-0.3-0.4-0.8-0.7-1.4-0.7s-1.1,0.3-1.4,0.7c-1.3,1.9-3.7,3.1-6.3,3.1s-5-1.2-6.3-3.1
		C12.5,67.3,12,67,11.4,67s-1.1,0.3-1.4,0.7c-1.3,1.9-3.7,3.1-6.3,3.1c-0.9,0-1.7,0.7-1.7,1.7c0,0.9,0.8,1.7,1.7,1.7
		c3,0,5.7-1.1,7.7-2.9c2,1.8,4.7,2.9,7.7,2.9s5.7-1.1,7.7-2.9c2,1.8,4.7,2.9,7.7,2.9s5.7-1.1,7.7-2.9c2,1.8,4.7,2.9,7.7,2.9
		c3.2,0,6.1-1.2,8.1-3.3c2,2.1,4.9,3.3,8.1,3.3c3,0,5.7-1.1,7.7-2.9c2,1.8,4.7,2.9,7.7,2.9c0.9,0,1.7-0.7,1.7-1.7
		C82.9,71.5,82.2,70.8,81.2,70.8"/>
</g>
</svg>
