<?xml version="1.0" encoding="utf-8"?>
<!-- Generator: Adobe Illustrator 24.0.2, SVG Export Plug-In . SVG Version: 6.00 Build 0)  -->
<svg version="1.1" id="Livello_1" xmlns="http://www.w3.org/2000/svg" xmlns:xlink="http://www.w3.org/1999/xlink" x="0px" y="0px"
	 viewBox="0 0 85 85" style="enable-background:new 0 0 85 85;" xml:space="preserve">
<style type="text/css">
	.st0{fill:#6C6C6C;}
</style>
<g>
	<g>
		<path class="st0" d="M63.7,20.1c-5.8-5.8-13.5-9-21.7-9s-15.9,3.2-21.7,9c-5.8,5.8-9,13.5-9,21.7s3.2,15.9,9,21.7
			c5.8,5.8,13.5,9,21.7,9s15.9-3.2,21.7-9c5.8-5.8,9-13.5,9-21.7S69.5,25.9,63.7,20.1z M42.1,68.8c-14.9,0-27-12.1-27-27
			s12.1-27,27-27s27,12.1,27,27S56.9,68.8,42.1,68.8z"/>
	</g>
</g>
<g>
	<g>
		<path class="st0" d="M35.4,33.7c-3-3-7.8-3-10.8,0c-0.7,0.7-0.7,1.9,0,2.6s1.9,0.7,2.6,0c1.6-1.6,4.1-1.6,5.7,0
			c0.4,0.4,0.8,0.5,1.3,0.5s0.9-0.2,1.3-0.5C36.1,35.6,36.1,34.4,35.4,33.7z"/>
	</g>
</g>
<g>
	<g>
		<path class="st0" d="M59.5,33.7c-3-3-7.8-3-10.8,0c-0.7,0.7-0.7,1.9,0,2.6s1.9,0.7,2.6,0c1.6-1.6,4.1-1.6,5.7,0
			c0.4,0.4,0.8,0.5,1.3,0.5s0.9-0.2,1.3-0.5C60.2,35.6,60.2,34.4,59.5,33.7z"/>
	</g>
</g>
<g>
	<g>
		<path class="st0" d="M58.2,43.1H25.9c-1,0-1.8,0.8-1.8,1.8c0,9.9,8.1,18,18,18s18-8.1,18-18C60,43.9,59.2,43.1,58.2,43.1z
			 M42.1,59.3c-7.3,0-13.3-5.5-14.2-12.5h28.5C55.4,53.8,49.4,59.3,42.1,59.3z"/>
	</g>
</g>
</svg>
