<?xml version="1.0" encoding="utf-8"?>
<!-- Generator: Adobe Illustrator 24.0.2, SVG Export Plug-In . SVG Version: 6.00 Build 0)  -->
<svg version="1.1" id="Livello_1" xmlns="http://www.w3.org/2000/svg" xmlns:xlink="http://www.w3.org/1999/xlink" x="0px" y="0px"
	 viewBox="0 0 85 85" style="enable-background:new 0 0 85 85;" xml:space="preserve">
<style type="text/css">
	.st0{fill:#6C6C6C;}
</style>
<g>
	<path class="st0" d="M17.3,36.5H28v-8.4H17.3V36.5z M29.7,39.9h-14c-0.9,0-1.7-0.8-1.7-1.7V26.5c0-0.9,0.8-1.7,1.7-1.7h14
		c0.9,0,1.7,0.8,1.7,1.7v11.8C31.4,39.2,30.6,39.9,29.7,39.9"/>
	<path class="st0" d="M37.9,36.5h10.7v-8.4H37.9V36.5z M50.3,39.9h-14c-0.9,0-1.7-0.8-1.7-1.7V26.5c0-0.9,0.8-1.7,1.7-1.7h14
		c0.9,0,1.7,0.8,1.7,1.7v11.8C52,39.2,51.2,39.9,50.3,39.9"/>
	<path class="st0" d="M73.6,40.4H60.2c-2.9,0-3.9-2.3-3.9-3.9v-7.3c0-2.9,2.4-3.9,3.9-3.9h8.9c0.9,0,1.7,0.8,1.7,1.7
		s-0.8,1.7-1.7,1.7h-8.9c-0.6,0-0.6,0.3-0.6,0.5v7.3c0,0.6,0.3,0.6,0.6,0.6h13.4c0.9,0,1.7,0.8,1.7,1.7
		C75.3,39.7,74.5,40.4,73.6,40.4"/>
	<path class="st0" d="M23.3,53c-2.7,0-4.8,2.2-4.8,4.8s2.2,4.8,4.8,4.8s4.8-2.2,4.8-4.8S25.9,53,23.3,53 M23.3,65.9
		c-4.5,0-8.2-3.7-8.2-8.2s3.7-8.2,8.2-8.2s8.2,3.7,8.2,8.2S27.8,65.9,23.3,65.9"/>
	<path class="st0" d="M61.1,53c-2.7,0-4.8,2.2-4.8,4.8s2.2,4.8,4.8,4.8c2.7,0,4.8-2.2,4.8-4.8C65.9,55.1,63.7,53,61.1,53 M61.1,65.9
		c-4.5,0-8.2-3.7-8.2-8.2s3.7-8.2,8.2-8.2c4.5,0,8.2,3.7,8.2,8.2S65.6,65.9,61.1,65.9"/>
	<path class="st0" d="M54.6,59.3H29.8c-0.9,0-1.7-0.8-1.7-1.7c0-0.9,0.8-1.7,1.7-1.7h24.8c0.9,0,1.7,0.8,1.7,1.7
		C56.3,58.6,55.5,59.3,54.6,59.3"/>
	<path class="st0" d="M68.9,59.3h-1.3c-0.9,0-1.7-0.8-1.7-1.7c0-0.9,0.8-1.7,1.7-1.7h1.3c0.8,0,3.6-0.3,3.6-3.5V40.3l-5.3-13.7
		c-0.1-0.3-1.4-4.2-5.2-4.2H15.3c-0.8,0-3.5,0.3-3.5,3.5v26.4c0,0.8,0.3,3.5,3.5,3.5h1.6c0.9,0,1.7,0.8,1.7,1.7
		c0,0.9-0.8,1.7-1.7,1.7h-1.6c-5.1,0-6.9-4.1-6.9-6.9V26c0-5.1,4.2-6.9,6.9-6.9h46.6c5.1,0,7.8,4.2,8.4,6.5l5.4,13.9
		c0.1,0.2,0.1,0.4,0.1,0.6v12.4C75.8,57.5,71.7,59.3,68.9,59.3"/>
</g>
</svg>
