<?xml version="1.0" encoding="utf-8"?>
<!-- Generator: Adobe Illustrator 24.0.2, SVG Export Plug-In . SVG Version: 6.00 Build 0)  -->
<svg version="1.1" id="Livello_1" xmlns="http://www.w3.org/2000/svg" xmlns:xlink="http://www.w3.org/1999/xlink" x="0px" y="0px"
	 viewBox="0 0 85 85" style="enable-background:new 0 0 85 85;" xml:space="preserve">
<style type="text/css">
	.st0{fill:#6C6C6C;}
</style>
<g>
	<path class="st0" d="M25.9,40.4c-0.7,0.3-1.2,1-1.1,1.8s0.5,1.4,1.2,1.7L36,47.8l3.8,10c0.5,1.2,1.4,1.3,1.8,1.3
		c0.8,0,1.4-0.4,1.7-1.1l11.5-26.7c0.3-0.7,0.2-1.5-0.4-2.1c-0.4-0.4-0.9-0.5-1.3-0.5c-0.3,0-0.5,0-0.8,0.2L25.9,40.4z M41.8,52.2
		l-2.5-6.6c-0.2-0.5-0.6-0.9-1.1-1.1L31.6,42l18-7.8L41.8,52.2z"/>
	<path class="st0" d="M63.4,20.5c-5.7-5.7-13.3-8.8-21.3-8.8s-15.6,3.1-21.3,8.8s-8.8,13.3-8.8,21.3s3.1,15.6,8.8,21.3
		c5.7,5.7,13.3,8.8,21.3,8.8c5.5,0,10.9-1.5,15.6-4.3c0.9-0.5,1.2-1.7,0.6-2.6s-1.7-1.2-2.6-0.6c-4.1,2.5-8.8,3.8-13.6,3.8
		c-14.5,0-26.3-11.8-26.3-26.3s11.8-26.4,26.3-26.4s26.3,11.8,26.3,26.4c0,5.2-1.5,10.2-4.5,14.6c-0.6,0.9-0.3,2.1,0.5,2.6
		c0.9,0.6,2.1,0.3,2.6-0.5c3.3-5,5.1-10.8,5.1-16.7C72.2,33.7,69.1,26.2,63.4,20.5z"/>
</g>
</svg>
