<?xml version="1.0" encoding="utf-8"?>
<!-- Generator: Adobe Illustrator 22.1.0, SVG Export Plug-In . SVG Version: 6.00 Build 0)  -->
<svg version="1.1"
	 id="Livello_1" xmlns:cc="http://creativecommons.org/ns#" xmlns:dc="http://purl.org/dc/elements/1.1/" xmlns:inkscape="http://www.inkscape.org/namespaces/inkscape" xmlns:rdf="http://www.w3.org/1999/02/22-rdf-syntax-ns#" xmlns:sodipodi="http://sodipodi.sourceforge.net/DTD/sodipodi-0.dtd" xmlns:svg="http://www.w3.org/2000/svg"
	 xmlns="http://www.w3.org/2000/svg" xmlns:xlink="http://www.w3.org/1999/xlink" x="0px" y="0px" viewBox="0 0 90.5 89.7"
	 style="enable-background:new 0 0 90.5 89.7;" xml:space="preserve">
<g transform="translate(0,-952.36218)">
	<path d="M64.1,953.9c1.1,0,2,0.9,2,2v12.3c3.4,0.9,6,4,6,7.7c0,4.4-3.6,8-8,8s-8-3.6-8-8c0-3.7,2.6-6.8,6-7.7v-12.3
		C62.1,954.8,63,953.9,64.1,953.9z M26.1,953.9c1.1,0,2,0.9,2,2v12.3c3.4,0.9,6,4,6,7.7c0,4.4-3.6,8-8,8s-8-3.6-8-8
		c0-3.7,2.6-6.8,6-7.7v-12.3C24.1,954.8,25,953.9,26.1,953.9z M78.1,959.9c5.5,0,10,4.5,10,10v59.9c0,5.5-4.5,10-10,10H12.2
		c-5.5,0-10-4.5-10-10V970c0-5.5,4.5-10,10-10h6c1.1,0,2,0.9,2,2s-1,2-2,2h-6c-3.4,0-6,2.7-6,6v18h78v-18c0-3.4-2.7-6-6-6h-6
		c-1.1,0-2-0.9-2-2s1-2,2-2L78.1,959.9z M56.2,959.9c1.1,0,2,0.9,2,2s-0.9,2-2,2h-22c-1.1,0-2-0.9-2-2s0.9-2,2-2H56.2z M64.1,971.9
		c-2.2,0-4,1.8-4,4c0,2.2,1.8,4,4,4c2.2,0,4-1.8,4-4C68.1,973.7,66.4,971.9,64.1,971.9z M26.1,971.9c-2.2,0-4,1.8-4,4
		c0,2.2,1.8,4,4,4s4-1.8,4-4C30.1,973.7,28.4,971.9,26.1,971.9z M84.2,991.9h-78v38c0,3.4,2.7,6,6,6h65.9c3.4,0,6-2.7,6-6
		L84.2,991.9z"/>
</g>
</svg>
