<?xml version="1.0" encoding="utf-8"?>
<!-- Generator: Adobe Illustrator 22.1.0, SVG Export Plug-In . SVG Version: 6.00 Build 0)  -->
<svg version="1.1" id="Livello_1" xmlns="http://www.w3.org/2000/svg" xmlns:xlink="http://www.w3.org/1999/xlink" x="0px" y="0px"
	 viewBox="0 0 95 57" style="enable-background:new 0 0 95 57;" xml:space="preserve">
<style type="text/css">
	.st0{clip-path:url(#SVGID_5_);fill:url(#SVGID_6_);}
	.st1{fill:#D12D26;}
	.st2{fill:#1D1D1B;}
</style>
<g>
	<defs>
		<path id="SVGID_1_" d="M31.2,17c-0.1,0.9-0.1,1.8-0.1,2.6C31,16,32.4,12.5,35.5,10c5.5-4.5,14-4,19.3,1.1c0.1,0.1,0.3,0.2,0.4,0.4
			c0.7,0.8,1.8,1.2,3,1.2c2.4,0,4-1.4,4.3-3.6c0.1-1.1-0.3-2.2-1-2.9c-2.8-2.9-6.9-4.6-11.6-4.6C40.3,1.6,32.3,8.2,31.2,17"/>
	</defs>
	<linearGradient id="SVGID_2_" gradientUnits="userSpaceOnUse" x1="30.9175" y1="19.3062" x2="59.598" y2="2.7475">
		<stop  offset="0" style="stop-color:#F6E8D5"/>
		<stop  offset="1" style="stop-color:#D12D26"/>
	</linearGradient>
	<use xlink:href="#SVGID_1_"  style="overflow:visible;fill:url(#SVGID_2_);"/>
	<clipPath id="SVGID_3_">
		<use xlink:href="#SVGID_1_"  style="overflow:visible;"/>
	</clipPath>
</g>
<g>
	<defs>
		<path id="SVGID_4_" d="M36.8,23c0,0.1,0,0.1,0,0.2C36.8,23.2,36.8,23.1,36.8,23 M36.8,22L36.8,22L36.8,22z M35.5,10
			c-3,2.5-4.5,6-4.4,9.6c0.2,2.8,1.1,5.4,2.8,7.5l0,0c0.1,0.1,0.2,0.3,0.3,0.4c0.1,0.1,0.1,0.1,0.2,0.2l0.1,0.1
			c0.1,0.2,0.3,0.3,0.4,0.5c0.1,0.1,0.3,0.3,0.4,0.4l0.1,0.1c0.1,0.1,0.1,0.1,0.2,0.2c0.1,0.1,0.3,0.2,0.4,0.4l0,0
			c2.1,1.7,4.7,2.9,7.7,3.4c0.2,0,0.4,0.1,0.6,0.1l0,0c-0.2,0-0.4,0-0.6-0.1c0.9,0.1,1.8,0.2,2.8,0.2c1,0,1.9-0.1,2.8-0.2
			c-11,0.9-12.4-6.7-12.5-10.1c0-0.2,0-0.3,0-0.5c0-0.1,0-0.1,0-0.2c0-0.3,0-0.7,0.1-1.1c0.8-6.6,6.2-12,12-12c1.9,0,3.6,0.6,5,1.5
			c0.3,0.2,0.6,0.4,0.9,0.7c-2.9-2.8-6.7-4.2-10.5-4.2C41.1,6.9,38,7.9,35.5,10"/>
	</defs>
	<clipPath id="SVGID_5_">
		<use xlink:href="#SVGID_4_"  style="overflow:visible;"/>
	</clipPath>
	
		<linearGradient id="SVGID_6_" gradientUnits="userSpaceOnUse" x1="-594.7471" y1="915.8869" x2="-594.329" y2="915.8869" gradientTransform="matrix(7.649 -62.1441 -62.1441 0 61507.4922 -36927.1016)">
		<stop  offset="0" style="stop-color:#F6E8D5"/>
		<stop  offset="1" style="stop-color:#D12D26"/>
	</linearGradient>
	<polygon class="st0" points="27.7,33.6 31,6.9 58,6.9 54.8,33.6 	"/>
</g>
<g>
	<path class="st1" d="M57.2,15.8h-5.4c-1.1,0-2.3,0.4-3.2,1.2c-1.9,1.6-2.2,4.1-0.7,5.7c1.1,1.1,2.8,1.4,4.3,1
		c-1.4,0.8-3.1,1.2-4.8,1.2c-4.7,0-8.1-3.5-7.6-7.8c0.5-4.3,4.8-7.8,9.5-7.8c1.6,0,3.1,0.4,4.2,1.1c-1.4-0.9-3-1.4-4.8-1.4
		c-5.8,0-11.2,5.4-12,12c0,0.3,0,0.5-0.1,0.8c-0.1,2.7,0.3,12,12.5,11c10.5-1.2,13.1-9.2,13.1-9.2S65.5,15.7,57.2,15.8"/>
	<path class="st1" d="M88.7,42.2l0.3-1.9c0.1,0,0.2,0,0.3,0c0.1,0,0.2,0,0.3,0c0.5,0,0.8,0.1,1,0.3c0.2,0.2,0.3,0.4,0.2,0.7
		c0,0.3-0.2,0.6-0.4,0.7c-0.2,0.2-0.5,0.3-0.8,0.3H88.7 M89.2,43.9l0.8,1.7c0.1,0.1,0.1,0.2,0.2,0.4c0.1,0.1,0.2,0.2,0.2,0.3
		c0.1,0.1,0.2,0.1,0.3,0.2c0.1,0,0.3,0.1,0.5,0.1c0.3,0,0.5-0.1,0.8-0.2c0.2-0.2,0.4-0.4,0.6-0.7c-0.1-0.3-0.3-0.6-0.6-1
		c-0.2-0.4-0.5-0.8-0.7-1.2c0.4-0.2,0.8-0.5,1.1-0.9c0.3-0.4,0.5-0.8,0.6-1.4c0.1-0.8-0.1-1.5-0.6-2c-0.5-0.5-1.4-0.7-2.6-0.7
		c-0.4,0-0.9,0-1.2,0.1c-0.4,0-0.7,0.1-1,0.2c-0.2,0.1-0.3,0.1-0.4,0.2c-0.1,0.1-0.2,0.2-0.2,0.4L86,45.4c0,0.2,0,0.4,0,0.5
		c0,0.1,0.1,0.2,0.2,0.3c0.1,0.1,0.2,0.1,0.4,0.2c0.1,0,0.3,0,0.5,0c0.2,0,0.4,0,0.6,0c0.2,0,0.4-0.1,0.5-0.1l0.3-2.5H89.2
		 M79.3,45.2c-0.1,0.4,0,0.7,0.2,0.9c0.2,0.2,0.5,0.3,0.8,0.3H84c0.2,0,0.4-0.1,0.6-0.2c0.2-0.1,0.3-0.4,0.3-0.7c0-0.2,0-0.3,0-0.5
		c0-0.2-0.1-0.3-0.1-0.4h-3.3l0.2-1.4h2.4c0.2,0,0.4-0.1,0.6-0.2c0.2-0.1,0.3-0.4,0.3-0.7c0-0.2,0-0.3,0-0.5c0-0.2-0.1-0.3-0.1-0.4
		H82l0.2-1.2h2.7c0.2,0,0.4-0.1,0.6-0.2c0.2-0.1,0.3-0.4,0.3-0.7c0-0.2,0-0.3,0-0.5c0-0.2-0.1-0.3-0.1-0.4h-4.2
		c-0.4,0-0.7,0.1-0.9,0.3c-0.2,0.2-0.4,0.5-0.4,0.9L79.3,45.2 M78.4,42.5c0-0.3,0-0.5-0.1-0.6c-0.1-0.1-0.3-0.2-0.6-0.2h-2.2
		c-0.2,0-0.4,0.1-0.6,0.2c-0.2,0.1-0.3,0.4-0.3,0.7c0,0.2,0,0.3,0,0.5c0,0.2,0.1,0.3,0.1,0.4h1.4L76,44.6c-0.1,0-0.2,0.1-0.4,0.1
		c-0.2,0-0.3,0.1-0.5,0.1c-0.3,0-0.6,0-0.8-0.1c-0.2-0.1-0.5-0.2-0.6-0.4c-0.2-0.2-0.3-0.4-0.4-0.7c-0.1-0.3-0.1-0.6,0-1
		c0.1-0.7,0.4-1.3,0.9-1.7c0.5-0.4,1.1-0.6,1.8-0.6c0.4,0,0.8,0.1,1.1,0.2c0.3,0.1,0.6,0.3,0.8,0.4c0.2-0.1,0.3-0.2,0.4-0.4
		c0.1-0.2,0.2-0.4,0.2-0.6c0.1-0.4-0.1-0.8-0.6-1c-0.4-0.3-1.1-0.4-1.9-0.4c-0.6,0-1.1,0.1-1.7,0.3c-0.6,0.2-1.1,0.4-1.5,0.8
		c-0.5,0.3-0.9,0.8-1.2,1.3c-0.3,0.5-0.5,1.1-0.6,1.8c-0.1,0.7-0.1,1.3,0.1,1.8c0.2,0.5,0.4,0.9,0.8,1.3c0.4,0.3,0.8,0.6,1.3,0.8
		c0.5,0.2,1.1,0.3,1.7,0.3c0.2,0,0.5,0,0.7,0c0.2,0,0.5-0.1,0.7-0.1c0.2,0,0.4-0.1,0.6-0.2c0.2-0.1,0.3-0.1,0.5-0.2
		c0.2-0.1,0.4-0.2,0.5-0.4c0.1-0.1,0.2-0.3,0.2-0.6L78.4,42.5 M67.2,40.5c0.1,0.4,0.1,0.7,0.2,1.2c0.1,0.4,0.1,0.9,0.2,1.4H66
		c0.2-0.5,0.4-0.9,0.6-1.3C66.8,41.3,67,40.9,67.2,40.5L67.2,40.5 M65.5,39.5c-0.1,0.3-0.3,0.6-0.5,1c-0.2,0.4-0.4,0.8-0.6,1.2
		c-0.2,0.4-0.4,0.8-0.6,1.2c-0.2,0.4-0.4,0.8-0.5,1.1c-0.2,0.3-0.3,0.6-0.4,0.9c-0.1,0.2-0.1,0.3-0.2,0.4c-0.1,0.1-0.1,0.2-0.1,0.4
		c0,0.3,0,0.5,0.2,0.6c0.2,0.1,0.5,0.2,0.9,0.2c0.2,0,0.4,0,0.5,0c0.1,0,0.3-0.1,0.4-0.1c0.1-0.3,0.2-0.5,0.3-0.8
		c0.1-0.3,0.2-0.5,0.3-0.8h2.3l0.1,0.9c0,0.1,0.1,0.3,0.1,0.4c0,0.1,0.1,0.2,0.2,0.3c0.1,0.1,0.2,0.1,0.3,0.2c0.1,0,0.3,0.1,0.5,0.1
		c0.3,0,0.5,0,0.7-0.1c0.2-0.1,0.4-0.2,0.5-0.3c-0.1-0.5-0.1-1-0.2-1.6c-0.1-0.6-0.2-1.2-0.3-1.9c-0.1-0.6-0.2-1.2-0.3-1.8
		c-0.1-0.6-0.2-1.1-0.3-1.6c-0.1-0.3-0.2-0.5-0.6-0.6c-0.3-0.1-0.7-0.2-1.1-0.2c-0.3,0-0.6,0-0.9,0.1c-0.3,0.1-0.5,0.2-0.7,0.2
		C65.8,39,65.7,39.2,65.5,39.5 M60.9,43.7c0.6-0.8,1.1-1.5,1.5-2c0.4-0.5,0.6-0.9,0.8-1.2c0.2-0.3,0.3-0.5,0.4-0.7
		c0.1-0.1,0.1-0.3,0.1-0.4c0-0.3,0-0.6-0.2-0.7c-0.2-0.2-0.4-0.2-0.7-0.2c-0.2,0-0.4,0-0.5,0.1c-0.2,0-0.4,0.1-0.5,0.2
		c-0.2,0.3-0.3,0.6-0.4,0.8c-0.1,0.2-0.2,0.5-0.4,0.7c-0.1,0.2-0.2,0.4-0.4,0.7c-0.1,0.2-0.3,0.5-0.4,0.7h-0.1l-0.8-2.1
		c-0.1-0.4-0.3-0.6-0.5-0.8c-0.2-0.1-0.5-0.2-0.8-0.2c-0.3,0-0.5,0.1-0.7,0.2c-0.2,0.1-0.4,0.3-0.5,0.4c0.1,0.3,0.2,0.7,0.4,1.1
		c0.2,0.4,0.3,0.8,0.5,1.2c0.2,0.4,0.4,0.8,0.6,1.2c0.2,0.4,0.4,0.7,0.5,1.1l-0.2,1.7c-0.1,0.4,0,0.7,0.2,0.8
		c0.2,0.1,0.5,0.2,0.9,0.2c0.2,0,0.4,0,0.6,0c0.2,0,0.3-0.1,0.4-0.1L60.9,43.7 M51.2,40.7c0.4-0.4,0.8-0.6,1.4-0.6
		c0.5,0,0.9,0.2,1.2,0.6c0.3,0.4,0.3,1,0.2,1.7c-0.1,0.8-0.4,1.4-0.7,1.7c-0.4,0.4-0.8,0.6-1.4,0.6c-0.5,0-0.9-0.2-1.2-0.6
		c-0.3-0.4-0.3-1-0.2-1.7C50.6,41.7,50.8,41.1,51.2,40.7 M48.2,44.3c0.1,0.5,0.4,0.9,0.7,1.3c0.3,0.4,0.7,0.6,1.2,0.8
		c0.5,0.2,1,0.3,1.6,0.3s1.1-0.1,1.7-0.3c0.5-0.2,1-0.4,1.4-0.8c0.4-0.3,0.8-0.8,1-1.3c0.3-0.5,0.5-1.1,0.6-1.8
		c0.1-0.7,0.1-1.3-0.1-1.8c-0.1-0.5-0.4-0.9-0.7-1.3c-0.3-0.3-0.7-0.6-1.2-0.8c-0.5-0.2-1-0.3-1.6-0.3s-1.1,0.1-1.6,0.3
		c-0.5,0.2-1,0.4-1.4,0.8c-0.4,0.3-0.8,0.8-1,1.3c-0.3,0.5-0.5,1.1-0.6,1.8C48.1,43.2,48.1,43.7,48.2,44.3 M45.4,45.5
		c0.2-0.3,0.4-0.7,0.7-1.1c0.2-0.4,0.5-0.9,0.7-1.4c0.2-0.5,0.5-1,0.7-1.4c0.2-0.4,0.4-0.9,0.5-1.2c0.1-0.4,0.2-0.6,0.3-0.8
		c0-0.3,0-0.6-0.2-0.7c-0.2-0.1-0.5-0.2-0.8-0.2c-0.2,0-0.4,0-0.6,0.1c-0.2,0.1-0.4,0.1-0.5,0.2c-0.4,0.9-0.7,1.9-1.1,2.8
		c-0.4,1-0.7,1.8-1.1,2.6h-0.1c-0.1-0.8-0.3-1.6-0.4-2.4c-0.1-0.8-0.2-1.6-0.4-2.4c0-0.4-0.2-0.6-0.3-0.7s-0.4-0.2-0.7-0.2
		c-0.3,0-0.5,0-0.7,0.1c-0.2,0.1-0.4,0.2-0.6,0.3c0,0.4,0.1,0.8,0.2,1.2c0.1,0.4,0.1,0.9,0.2,1.3c0.1,0.4,0.2,0.9,0.3,1.3
		c0.1,0.4,0.2,0.8,0.3,1.2c0.1,0.4,0.2,0.7,0.3,1c0.1,0.3,0.2,0.6,0.2,0.8c0.1,0.2,0.2,0.3,0.5,0.4c0.2,0.1,0.5,0.2,0.9,0.2
		c0.3,0,0.6,0,0.8-0.1c0.3-0.1,0.5-0.2,0.6-0.3C45,46,45.2,45.8,45.4,45.5 M37,40.5c0.1,0.4,0.1,0.7,0.2,1.2
		c0.1,0.4,0.1,0.9,0.2,1.4h-1.6c0.2-0.5,0.4-0.9,0.6-1.3C36.6,41.3,36.8,40.9,37,40.5L37,40.5 M35.3,39.5c-0.1,0.3-0.3,0.6-0.5,1
		c-0.2,0.4-0.4,0.8-0.6,1.2c-0.2,0.4-0.4,0.8-0.6,1.2c-0.2,0.4-0.4,0.8-0.5,1.1c-0.2,0.3-0.3,0.6-0.4,0.9c-0.1,0.2-0.1,0.3-0.2,0.4
		c-0.1,0.1-0.1,0.2-0.1,0.4c0,0.3,0,0.5,0.2,0.6c0.2,0.1,0.5,0.2,0.9,0.2c0.2,0,0.4,0,0.5,0c0.1,0,0.3-0.1,0.4-0.1
		c0.1-0.3,0.2-0.5,0.3-0.8c0.1-0.3,0.2-0.5,0.3-0.8h2.3l0.1,0.9c0,0.1,0.1,0.3,0.1,0.4c0,0.1,0.1,0.2,0.2,0.3
		c0.1,0.1,0.2,0.1,0.3,0.2c0.1,0,0.3,0.1,0.5,0.1c0.3,0,0.5,0,0.7-0.1c0.2-0.1,0.4-0.2,0.5-0.3c-0.1-0.5-0.1-1-0.2-1.6
		c-0.1-0.6-0.2-1.2-0.3-1.9c-0.1-0.6-0.2-1.2-0.3-1.8c-0.1-0.6-0.2-1.1-0.3-1.6c-0.1-0.3-0.2-0.5-0.6-0.6c-0.3-0.1-0.7-0.2-1.1-0.2
		c-0.3,0-0.6,0-0.9,0.1c-0.3,0.1-0.5,0.2-0.7,0.2C35.5,39,35.4,39.2,35.3,39.5 M29.4,46.3c0.6-0.2,1-0.4,1.5-0.8
		c0.4-0.3,0.8-0.8,1.1-1.3c0.3-0.5,0.5-1.1,0.6-1.8c0.1-0.7,0.1-1.3-0.1-1.8c-0.1-0.5-0.4-0.9-0.7-1.3c-0.3-0.3-0.8-0.6-1.3-0.8
		c-0.5-0.2-1.1-0.2-1.8-0.2c-0.3,0-0.7,0-1.1,0.1c-0.4,0-0.8,0.1-1.2,0.2c-0.2,0.1-0.3,0.1-0.4,0.2c-0.1,0.1-0.2,0.2-0.2,0.4l-0.8,6
		c-0.1,0.4,0.1,0.8,0.6,0.9c0.2,0.1,0.3,0.1,0.5,0.2c0.2,0,0.4,0.1,0.6,0.1c0.2,0,0.4,0,0.6,0.1c0.2,0,0.4,0,0.5,0
		C28.3,46.6,28.9,46.5,29.4,46.3 M27.8,40.3c0.1,0,0.3,0,0.4,0c0.1,0,0.2,0,0.4,0c0.6,0,1.1,0.2,1.4,0.6c0.3,0.4,0.4,1,0.3,1.7
		c-0.1,0.4-0.2,0.7-0.3,1c-0.1,0.3-0.3,0.5-0.5,0.7c-0.2,0.2-0.4,0.3-0.7,0.4c-0.3,0.1-0.5,0.1-0.8,0.1c-0.1,0-0.2,0-0.4,0
		c-0.1,0-0.2,0-0.3,0L27.8,40.3 M19.9,42.2l0.3-1.9c0.1,0,0.2,0,0.3,0c0.1,0,0.2,0,0.3,0c0.5,0,0.8,0.1,1,0.3
		c0.2,0.2,0.3,0.4,0.2,0.7c0,0.3-0.2,0.6-0.4,0.7c-0.2,0.2-0.5,0.3-0.8,0.3H19.9 M20.4,43.9l0.8,1.7c0.1,0.1,0.1,0.2,0.2,0.4
		c0.1,0.1,0.2,0.2,0.2,0.3c0.1,0.1,0.2,0.1,0.3,0.2c0.1,0,0.3,0.1,0.5,0.1c0.3,0,0.5-0.1,0.8-0.2c0.2-0.2,0.4-0.4,0.6-0.7
		c-0.1-0.3-0.3-0.6-0.6-1c-0.2-0.4-0.5-0.8-0.7-1.2c0.4-0.2,0.8-0.5,1.1-0.9c0.3-0.4,0.5-0.8,0.6-1.4c0.1-0.8-0.1-1.5-0.6-2
		c-0.5-0.5-1.4-0.7-2.6-0.7c-0.4,0-0.9,0-1.2,0.1c-0.4,0-0.7,0.1-1,0.2c-0.2,0.1-0.3,0.1-0.4,0.2c-0.1,0.1-0.2,0.2-0.2,0.4l-0.9,6.1
		c0,0.2,0,0.4,0,0.5c0,0.1,0.1,0.2,0.2,0.3c0.1,0.1,0.2,0.1,0.4,0.2c0.1,0,0.3,0,0.5,0c0.2,0,0.4,0,0.6,0c0.2,0,0.4-0.1,0.5-0.1
		l0.3-2.5H20.4 M13.4,40.5c0.1,0.4,0.1,0.7,0.2,1.2c0.1,0.4,0.1,0.9,0.2,1.4h-1.6c0.2-0.5,0.4-0.9,0.6-1.3
		C13,41.3,13.2,40.9,13.4,40.5L13.4,40.5 M11.7,39.5c-0.1,0.3-0.3,0.6-0.5,1c-0.2,0.4-0.4,0.8-0.6,1.2c-0.2,0.4-0.4,0.8-0.6,1.2
		c-0.2,0.4-0.4,0.8-0.5,1.1c-0.2,0.3-0.3,0.6-0.4,0.9C9.1,45.1,9,45.2,9,45.3c-0.1,0.1-0.1,0.2-0.1,0.4c0,0.3,0,0.5,0.2,0.6
		c0.2,0.1,0.5,0.2,0.9,0.2c0.2,0,0.4,0,0.5,0c0.1,0,0.3-0.1,0.4-0.1c0.1-0.3,0.2-0.5,0.3-0.8c0.1-0.3,0.2-0.5,0.3-0.8h2.3l0.1,0.9
		c0,0.1,0.1,0.3,0.1,0.4c0,0.1,0.1,0.2,0.2,0.3c0.1,0.1,0.2,0.1,0.3,0.2c0.1,0,0.3,0.1,0.5,0.1c0.3,0,0.5,0,0.7-0.1
		c0.2-0.1,0.4-0.2,0.5-0.3c-0.1-0.5-0.1-1-0.2-1.6c-0.1-0.6-0.2-1.2-0.3-1.9c-0.1-0.6-0.2-1.2-0.3-1.8c-0.1-0.6-0.2-1.1-0.3-1.6
		c-0.1-0.3-0.2-0.5-0.6-0.6c-0.3-0.1-0.7-0.2-1.1-0.2c-0.3,0-0.6,0-0.9,0.1c-0.3,0.1-0.5,0.2-0.7,0.2C11.9,39,11.8,39.2,11.7,39.5
		 M8.5,42.5c0-0.3,0-0.5-0.1-0.6c-0.1-0.1-0.3-0.2-0.6-0.2H5.6c-0.2,0-0.4,0.1-0.6,0.2c-0.2,0.1-0.3,0.4-0.3,0.7c0,0.2,0,0.3,0,0.5
		c0,0.2,0.1,0.3,0.1,0.4h1.4l-0.2,1.2c-0.1,0-0.2,0.1-0.4,0.1c-0.2,0-0.3,0.1-0.5,0.1c-0.3,0-0.6,0-0.8-0.1
		c-0.2-0.1-0.5-0.2-0.6-0.4c-0.2-0.2-0.3-0.4-0.4-0.7c-0.1-0.3-0.1-0.6,0-1c0.1-0.7,0.4-1.3,0.9-1.7c0.5-0.4,1.1-0.6,1.8-0.6
		c0.4,0,0.8,0.1,1.1,0.2c0.3,0.1,0.6,0.3,0.8,0.4c0.2-0.1,0.3-0.2,0.4-0.4c0.1-0.2,0.2-0.4,0.2-0.6c0.1-0.4-0.1-0.8-0.6-1
		c-0.4-0.3-1.1-0.4-1.9-0.4c-0.6,0-1.1,0.1-1.7,0.3c-0.6,0.2-1.1,0.4-1.5,0.8c-0.5,0.3-0.9,0.8-1.2,1.3c-0.3,0.5-0.5,1.1-0.6,1.8
		C1,43.2,1,43.8,1.2,44.3c0.2,0.5,0.4,0.9,0.8,1.3c0.4,0.3,0.8,0.6,1.3,0.8c0.5,0.2,1.1,0.3,1.7,0.3c0.2,0,0.5,0,0.7,0
		c0.2,0,0.5-0.1,0.7-0.1c0.2,0,0.4-0.1,0.6-0.2c0.2-0.1,0.3-0.1,0.5-0.2c0.2-0.1,0.4-0.2,0.5-0.4c0.1-0.1,0.2-0.3,0.2-0.6L8.5,42.5"
		/>
	<path class="st2" d="M67.9,54.1c-0.1,0-0.1,0-0.2-0.1c-0.1,0-0.1,0-0.2-0.1c0,0-0.1,0-0.1-0.1l-0.2,0.4c0,0,0.1,0,0.1,0.1
		c0,0,0.1,0,0.2,0.1c0.1,0,0.2,0,0.3,0.1c0.1,0,0.2,0,0.3,0c0.2,0,0.3,0,0.5-0.1c0.1,0,0.3-0.1,0.4-0.2c0.1-0.1,0.2-0.2,0.2-0.3
		c0.1-0.1,0.1-0.2,0.1-0.4c0-0.1,0-0.2,0-0.3c0-0.1-0.1-0.1-0.1-0.2C69,53.1,68.9,53,68.9,53c-0.1,0-0.2-0.1-0.2-0.1
		c-0.2-0.1-0.3-0.1-0.3-0.2c-0.1-0.1-0.1-0.1-0.1-0.2c0-0.1,0-0.1,0.1-0.2c0-0.1,0.1-0.1,0.1-0.1c0.1,0,0.1-0.1,0.2-0.1
		c0.1,0,0.1,0,0.2,0c0.1,0,0.3,0,0.4,0c0.1,0,0.2,0.1,0.2,0.1l0.2-0.4c-0.1,0-0.1-0.1-0.3-0.1c-0.1,0-0.3-0.1-0.5-0.1
		c-0.4,0-0.6,0.1-0.8,0.2c-0.2,0.2-0.3,0.4-0.3,0.6c0,0.1,0,0.2,0,0.3c0,0.1,0.1,0.1,0.1,0.2C67.9,53,68,53,68,53.1
		c0.1,0,0.1,0.1,0.2,0.1c0.1,0,0.2,0.1,0.2,0.1c0.1,0,0.1,0.1,0.1,0.1c0,0,0.1,0.1,0.1,0.1c0,0,0,0.1,0,0.1c0,0.1,0,0.2-0.1,0.2
		c0,0.1-0.1,0.1-0.1,0.1c-0.1,0-0.1,0.1-0.2,0.1c-0.1,0-0.2,0-0.2,0C68,54.1,67.9,54.1,67.9,54.1 M65.5,52.1c0.1,0,0.1,0,0.2,0
		c0.1,0,0.2,0,0.3,0c0.2,0,0.4,0,0.4,0.1c0.1,0.1,0.1,0.2,0.1,0.4c0,0.1,0,0.2,0,0.3c0,0.1,0,0.2-0.1,0.3l-0.3,1.3h0.5L67,53
		c0-0.1,0-0.2,0.1-0.3c0-0.1,0-0.2,0-0.3c0-0.1,0-0.2-0.1-0.4c0-0.1-0.1-0.2-0.2-0.3c-0.1-0.1-0.2-0.1-0.3-0.2
		c-0.1,0-0.3-0.1-0.4-0.1c-0.2,0-0.3,0-0.5,0c-0.2,0-0.4,0.1-0.5,0.1l-0.6,2.7h0.5L65.5,52.1z M62.2,53.9c-0.1-0.1-0.1-0.3-0.1-0.4
		c0-0.2,0-0.3,0.1-0.5c0-0.2,0.1-0.3,0.2-0.5c0.1-0.1,0.2-0.3,0.3-0.4C62.8,52,63,52,63.1,52c0.2,0,0.3,0.1,0.4,0.2
		c0.1,0.1,0.1,0.3,0.1,0.4c0,0.2,0,0.3-0.1,0.5c0,0.2-0.1,0.3-0.2,0.5c-0.1,0.1-0.2,0.3-0.3,0.4c-0.1,0.1-0.3,0.1-0.4,0.1
		C62.4,54.1,62.3,54,62.2,53.9 M63.3,54.3c0.2-0.1,0.4-0.3,0.5-0.5c0.1-0.2,0.2-0.4,0.3-0.6c0.1-0.2,0.1-0.4,0.1-0.7
		c0-0.3-0.1-0.5-0.2-0.7c-0.2-0.2-0.4-0.3-0.7-0.3c-0.3,0-0.5,0.1-0.7,0.2c-0.2,0.1-0.4,0.3-0.5,0.5c-0.1,0.2-0.2,0.4-0.3,0.6
		c-0.1,0.2-0.1,0.4-0.1,0.7c0,0.3,0.1,0.5,0.2,0.7c0.2,0.2,0.4,0.3,0.7,0.3C62.8,54.5,63.1,54.4,63.3,54.3 M61.5,51
		c0.1-0.1,0.1-0.2,0.1-0.3c0-0.1,0-0.2-0.1-0.2c-0.1-0.1-0.1-0.1-0.2-0.1c-0.1,0-0.2,0-0.2,0.1c-0.1,0.1-0.1,0.2-0.1,0.3
		c0,0.1,0,0.2,0.1,0.2c0.1,0.1,0.1,0.1,0.2,0.1C61.3,51.1,61.4,51.1,61.5,51 M61.3,51.6h-0.5l-0.7,2.8h0.5L61.3,51.6z M59.5,54.5
		c0.1,0,0.2-0.1,0.3-0.1l0-0.4c-0.1,0-0.1,0.1-0.2,0.1c-0.1,0-0.2,0.1-0.3,0.1c-0.2,0-0.3,0-0.3-0.1c-0.1-0.1-0.1-0.1-0.1-0.3
		c0-0.1,0-0.3,0.1-0.4l0.3-1.2H60l0.1-0.4h-0.9l0.2-0.9l-0.5,0.1l-0.6,2.4c0,0.2-0.1,0.4-0.1,0.6c0,0.2,0.1,0.4,0.2,0.5
		c0.1,0.1,0.3,0.2,0.6,0.2C59.2,54.5,59.3,54.5,59.5,54.5 M55.8,53.9c-0.1-0.1-0.1-0.3-0.1-0.4c0-0.2,0-0.3,0.1-0.5
		c0-0.2,0.1-0.3,0.2-0.5c0.1-0.1,0.2-0.3,0.3-0.4c0.1-0.1,0.3-0.1,0.4-0.1c0.2,0,0.3,0.1,0.4,0.2c0.1,0.1,0.1,0.3,0.1,0.4
		c0,0.2,0,0.3-0.1,0.5c0,0.2-0.1,0.3-0.2,0.5c-0.1,0.1-0.2,0.3-0.3,0.4c-0.1,0.1-0.3,0.1-0.4,0.1C56,54.1,55.9,54,55.8,53.9
		 M56.9,54.3c0.2-0.1,0.4-0.3,0.5-0.5c0.1-0.2,0.2-0.4,0.3-0.6c0.1-0.2,0.1-0.4,0.1-0.7c0-0.3-0.1-0.5-0.2-0.7
		c-0.2-0.2-0.4-0.3-0.7-0.3c-0.3,0-0.5,0.1-0.7,0.2c-0.2,0.1-0.4,0.3-0.5,0.5c-0.1,0.2-0.2,0.4-0.3,0.6c-0.1,0.2-0.1,0.4-0.1,0.7
		c0,0.3,0.1,0.5,0.2,0.7c0.2,0.2,0.4,0.3,0.7,0.3C56.4,54.5,56.7,54.4,56.9,54.3 M53.6,51.6c-0.1,0-0.2,0-0.3,0.1
		c-0.1,0-0.2,0.1-0.2,0.1c-0.1,0-0.1,0.1-0.1,0.1c-0.1-0.1-0.1-0.2-0.2-0.2c-0.1-0.1-0.2-0.1-0.4-0.1c-0.2,0-0.3,0-0.5,0
		c-0.2,0-0.4,0.1-0.5,0.1l-0.6,2.7h0.5l0.6-2.4c0.1,0,0.1,0,0.2,0c0.1,0,0.2,0,0.3,0c0.1,0,0.2,0,0.2,0c0.1,0,0.1,0.1,0.1,0.1
		c0,0,0.1,0.1,0.1,0.2c0,0.1,0,0.1,0,0.2c0,0.1,0,0.2,0,0.3c0,0.1,0,0.2-0.1,0.3l-0.3,1.3h0.5l0.3-1.4c0-0.1,0-0.2,0-0.2
		c0-0.1,0-0.2,0-0.2c0,0,0-0.1,0-0.1c0,0,0-0.1,0-0.1c0.1,0,0.2-0.1,0.3-0.1c0.1,0,0.2-0.1,0.3-0.1c0.1,0,0.2,0,0.3,0
		c0.1,0,0.1,0.1,0.2,0.1c0,0,0.1,0.1,0.1,0.2c0,0.1,0,0.1,0,0.2c0,0.1,0,0.2,0,0.3c0,0.1,0,0.2-0.1,0.3l-0.3,1.3h0.5l0.3-1.4
		c0-0.1,0-0.2,0.1-0.3c0-0.1,0-0.2,0-0.3c0-0.1,0-0.2,0-0.3c0-0.1-0.1-0.2-0.1-0.3c-0.1-0.1-0.2-0.1-0.3-0.2c-0.1,0-0.2-0.1-0.4-0.1
		C53.8,51.6,53.7,51.6,53.6,51.6 M49.6,54.4c0.2,0,0.3-0.1,0.3-0.1l0-0.4c0,0-0.1,0-0.1,0.1c-0.1,0-0.1,0-0.2,0.1
		c-0.1,0-0.1,0-0.2,0c-0.1,0-0.1,0-0.2,0c-0.2,0-0.3,0-0.4,0c-0.1,0-0.2-0.1-0.2-0.1c-0.1-0.1-0.1-0.1-0.1-0.2c0-0.1,0-0.2,0-0.2v0
		l0-0.1c0.1,0,0.3,0,0.4,0c0.1,0,0.3,0,0.4-0.1c0.1,0,0.3-0.1,0.4-0.1c0.1,0,0.3-0.1,0.4-0.2c0.1-0.1,0.2-0.2,0.2-0.3
		c0.1-0.1,0.1-0.3,0.1-0.4c0-0.1,0-0.2,0-0.3c0-0.1-0.1-0.2-0.1-0.2c-0.1-0.1-0.2-0.1-0.3-0.2c-0.1,0-0.2-0.1-0.4-0.1
		c-0.3,0-0.5,0.1-0.7,0.2c-0.2,0.1-0.4,0.2-0.5,0.4c-0.1,0.2-0.2,0.4-0.3,0.6C48,53,48,53.3,48,53.5c0,0.1,0,0.3,0.1,0.4
		c0,0.1,0.1,0.2,0.2,0.3c0.1,0.1,0.2,0.2,0.3,0.2c0.1,0.1,0.3,0.1,0.5,0.1C49.3,54.5,49.5,54.5,49.6,54.4 M48.7,52.6
		c0.1-0.1,0.1-0.2,0.2-0.3c0.1-0.1,0.2-0.2,0.3-0.2c0.1-0.1,0.2-0.1,0.4-0.1c0.1,0,0.1,0,0.2,0c0.1,0,0.1,0,0.1,0.1l0.1,0.1l0,0.1
		c0,0.1,0,0.2-0.1,0.3c-0.1,0.1-0.2,0.1-0.3,0.2c-0.1,0-0.3,0.1-0.4,0.1c-0.2,0-0.4,0-0.6,0C48.6,52.8,48.6,52.7,48.7,52.6
		 M45.7,51.6c-0.2,0-0.3,0.1-0.5,0.1l-0.6,2.7h0.5l0.6-2.4c0.1,0,0.1,0,0.2,0c0.1,0,0.1,0,0.2,0c0.1,0,0.2,0,0.3,0s0.2,0,0.2,0.1
		l0.1-0.4c0,0-0.1,0-0.1,0c0,0-0.1,0-0.1,0c-0.1,0-0.1,0-0.2,0c-0.1,0-0.1,0-0.1,0C46.1,51.6,45.9,51.6,45.7,51.6 M43,54.5
		c0.1,0,0.2,0,0.2-0.1c0.1,0,0.1-0.1,0.2-0.1c0.1,0,0.1-0.1,0.1-0.1c0,0.1,0,0.1,0,0.2c0,0,0,0.1,0.1,0.1l0.4-0.1
		c0-0.1-0.1-0.2-0.1-0.3c0-0.1,0-0.2,0-0.2c0-0.1,0-0.2,0-0.2c0-0.1,0-0.2,0-0.2l0.4-1.8H44l-0.4,1.7c0,0.1,0,0.1,0,0.2
		c0,0.1,0,0.1,0,0.2c-0.1,0.1-0.2,0.2-0.3,0.2c-0.1,0.1-0.3,0.1-0.4,0.1c-0.1,0-0.2,0-0.2,0c-0.1,0-0.1-0.1-0.1-0.1
		c0,0-0.1-0.1-0.1-0.2c0-0.1,0-0.1,0-0.2c0-0.1,0-0.2,0-0.3c0-0.1,0.1-0.2,0.1-0.3l0.3-1.3h-0.5L42,53.1c0,0.1,0,0.2-0.1,0.3
		c0,0.1,0,0.2,0,0.3c0,0.1,0,0.2,0,0.3c0,0.1,0.1,0.2,0.1,0.3c0.1,0.1,0.2,0.1,0.3,0.2c0.1,0,0.2,0.1,0.4,0.1
		C42.8,54.5,42.9,54.5,43,54.5 M39.5,53.9c-0.1-0.1-0.1-0.3-0.1-0.4c0-0.2,0-0.3,0.1-0.5c0-0.2,0.1-0.3,0.2-0.5
		c0.1-0.1,0.2-0.3,0.3-0.4c0.1-0.1,0.3-0.1,0.4-0.1c0.2,0,0.3,0.1,0.4,0.2c0.1,0.1,0.1,0.3,0.1,0.4c0,0.2,0,0.3-0.1,0.5
		c0,0.2-0.1,0.3-0.2,0.5c-0.1,0.1-0.2,0.3-0.3,0.4c-0.1,0.1-0.3,0.1-0.4,0.1C39.7,54.1,39.5,54,39.5,53.9 M40.5,54.3
		c0.2-0.1,0.4-0.3,0.5-0.5c0.1-0.2,0.2-0.4,0.3-0.6c0.1-0.2,0.1-0.4,0.1-0.7c0-0.3-0.1-0.5-0.2-0.7c-0.2-0.2-0.4-0.3-0.7-0.3
		c-0.3,0-0.5,0.1-0.7,0.2c-0.2,0.1-0.4,0.3-0.5,0.5c-0.1,0.2-0.2,0.4-0.3,0.6c-0.1,0.2-0.1,0.4-0.1,0.7c0,0.3,0.1,0.5,0.2,0.7
		c0.2,0.2,0.4,0.3,0.7,0.3C40.1,54.5,40.3,54.4,40.5,54.3 M37.1,53.4c0-0.2-0.1-0.4-0.1-0.6c0-0.2,0-0.4-0.1-0.6c0-0.2,0-0.4,0-0.5
		h-0.5c0,0.5,0.1,1,0.2,1.5c0.1,0.5,0.2,0.9,0.3,1.4c-0.1,0.2-0.3,0.3-0.4,0.4C36.4,55,36.2,55,36,55c-0.1,0-0.1,0-0.2,0
		c-0.1,0-0.1,0-0.1-0.1l-0.2,0.4c0,0,0.1,0.1,0.2,0.1c0.1,0,0.2,0,0.3,0c0.2,0,0.4,0,0.5-0.1c0.2-0.1,0.3-0.1,0.4-0.3
		c0.1-0.1,0.3-0.2,0.4-0.4c0.1-0.1,0.2-0.3,0.3-0.5c0.2-0.2,0.3-0.5,0.4-0.7c0.1-0.2,0.2-0.5,0.3-0.7c0.1-0.2,0.2-0.5,0.3-0.7
		c0.1-0.2,0.1-0.4,0.2-0.5h-0.5c0,0.1-0.1,0.2-0.1,0.4c-0.1,0.2-0.1,0.4-0.2,0.6c-0.1,0.2-0.2,0.4-0.3,0.7c-0.1,0.2-0.2,0.5-0.4,0.7
		C37.2,53.8,37.2,53.6,37.1,53.4 M33,52.1c0.1,0,0.1,0,0.2,0c0.1,0,0.2,0,0.3,0c0.2,0,0.4,0,0.4,0.1c0.1,0.1,0.1,0.2,0.1,0.4
		c0,0.1,0,0.2,0,0.3c0,0.1,0,0.2-0.1,0.3l-0.3,1.3h0.5l0.3-1.4c0-0.1,0-0.2,0.1-0.3c0-0.1,0-0.2,0-0.3c0-0.1,0-0.2-0.1-0.4
		c0-0.1-0.1-0.2-0.2-0.3c-0.1-0.1-0.2-0.1-0.3-0.2c-0.1,0-0.3-0.1-0.4-0.1c-0.2,0-0.3,0-0.5,0c-0.2,0-0.4,0.1-0.5,0.1L32,54.4h0.5
		L33,52.1z M29.9,54c-0.1,0-0.1-0.1-0.2-0.1c0-0.1-0.1-0.1-0.1-0.2c0-0.1,0-0.2,0-0.2c0-0.2,0-0.4,0.1-0.5c0.1-0.2,0.2-0.3,0.3-0.5
		c0.1-0.1,0.3-0.2,0.4-0.3c0.2-0.1,0.3-0.1,0.6-0.1c0,0,0.1,0,0.1,0c0,0,0.1,0,0.1,0l-0.3,1.3c0,0.1,0,0.1,0,0.2c0,0.1,0,0.1,0,0.2
		c-0.1,0.1-0.2,0.2-0.3,0.2c-0.1,0.1-0.2,0.1-0.4,0.1C30.1,54.1,30,54.1,29.9,54 M31.4,54.4c0-0.1-0.1-0.2-0.1-0.3
		c0-0.1,0-0.2,0-0.2c0-0.1,0-0.2,0-0.2c0-0.1,0-0.2,0-0.2l0.4-1.7c-0.1-0.1-0.2-0.1-0.3-0.1c-0.1,0-0.2,0-0.3,0
		c-0.3,0-0.6,0.1-0.9,0.2c-0.2,0.1-0.4,0.3-0.6,0.4c-0.2,0.2-0.3,0.4-0.4,0.6c-0.1,0.2-0.1,0.5-0.1,0.7c0,0.1,0,0.3,0.1,0.4
		c0,0.1,0.1,0.2,0.2,0.3c0.1,0.1,0.2,0.2,0.3,0.2c0.1,0.1,0.2,0.1,0.4,0.1c0.2,0,0.4,0,0.5-0.1c0.1-0.1,0.2-0.1,0.3-0.2
		c0,0.1,0,0.1,0,0.2c0,0,0,0.1,0.1,0.1L31.4,54.4z M29.1,50.3l-0.5,0.1l-0.7,2.8c0,0.1,0,0.2-0.1,0.3c0,0.1,0,0.2,0,0.3
		c0,0.1,0,0.2,0,0.3c0,0.1,0.1,0.2,0.1,0.2c0.1,0.1,0.1,0.1,0.2,0.2c0.1,0,0.2,0.1,0.4,0.1l0.1-0.4c-0.2,0-0.3-0.1-0.3-0.1
		c-0.1-0.1-0.1-0.2-0.1-0.3c0-0.1,0-0.1,0-0.2c0-0.1,0-0.2,0.1-0.2L29.1,50.3z M25.8,52.1c0,0,0.1,0,0.2,0c0.1,0,0.2,0,0.2,0
		c0.1,0,0.2,0,0.3,0.1c0.1,0,0.1,0.1,0.2,0.1c0,0.1,0.1,0.1,0.1,0.2c0,0.1,0,0.2,0,0.2c0,0.2,0,0.4-0.1,0.5
		c-0.1,0.2-0.1,0.3-0.3,0.5c-0.1,0.1-0.2,0.2-0.4,0.3s-0.3,0.1-0.5,0.1c0,0-0.1,0-0.1,0c0,0-0.1,0-0.1,0L25.8,52.1z M25.9,51.6
		c-0.2,0-0.3,0.1-0.5,0.1l-0.9,3.7H25l0.2-1c0,0,0.1,0,0.1,0c0,0,0.1,0,0.1,0c0.3,0,0.6-0.1,0.8-0.2c0.2-0.1,0.4-0.3,0.6-0.4
		c0.2-0.2,0.3-0.4,0.3-0.6c0.1-0.2,0.1-0.5,0.1-0.7c0-0.1,0-0.3-0.1-0.4c0-0.1-0.1-0.2-0.2-0.3c-0.1-0.1-0.2-0.2-0.3-0.2
		c-0.1,0-0.3-0.1-0.5-0.1C26.2,51.6,26,51.6,25.9,51.6"/>
</g>
</svg>
