<?xml version="1.0" encoding="utf-8"?>
<!-- Generator: Adobe Illustrator 22.1.0, SVG Export Plug-In . SVG Version: 6.00 Build 0)  -->
<svg version="1.1" id="Livello_1" xmlns="http://www.w3.org/2000/svg" xmlns:xlink="http://www.w3.org/1999/xlink" x="0px" y="0px"
	 viewBox="0 0 100 100" style="enable-background:new 0 0 100 100;" xml:space="preserve">
<style type="text/css">
	.st0{clip-path:url(#SVGID_5_);fill:url(#SVGID_6_);}
	.st1{fill:#D12D26;}
</style>
<g>
	<defs>
		<path id="SVGID_1_" d="M4.3,48.8C4,51.4,4,53.9,4.1,56.3C3.7,46,8,35.8,16.7,28.6c15.8-13,40.4-11.5,55.6,3.3
			c0.4,0.3,0.8,0.7,1.1,1c2,2.2,5.1,3.5,8.6,3.5c7,0,11.6-4,12.4-10.4c0.4-3.3-0.7-6.3-2.9-8.4c-8-8.2-19.8-13.3-33.5-13.3
			C30.6,4.3,7.5,23.5,4.3,48.8"/>
	</defs>
	<linearGradient id="SVGID_2_" gradientUnits="userSpaceOnUse" x1="3.5708" y1="55.444" x2="86.3179" y2="7.6699">
		<stop  offset="0" style="stop-color:#F6E8D5"/>
		<stop  offset="1" style="stop-color:#D12D26"/>
	</linearGradient>
	<use xlink:href="#SVGID_1_"  style="overflow:visible;fill:url(#SVGID_2_);"/>
	<clipPath id="SVGID_3_">
		<use xlink:href="#SVGID_1_"  style="overflow:visible;"/>
	</clipPath>
</g>
<g>
	<defs>
		<path id="SVGID_4_" d="M20.5,66.2c0,0.2,0,0.4,0,0.6C20.5,66.6,20.5,66.4,20.5,66.2 M20.5,63.2L20.5,63.2L20.5,63.2z M16.7,28.6
			C8,35.8,3.7,46,4.1,56.3c0.5,8.1,3.3,15.5,8,21.6l0,0c0.3,0.4,0.6,0.8,1,1.2c0.2,0.2,0.3,0.4,0.4,0.5l0.2,0.2
			c0.4,0.4,0.8,0.9,1.2,1.3c0.4,0.4,0.8,0.8,1.3,1.3l0.2,0.2c0.2,0.2,0.4,0.3,0.5,0.5c0.4,0.3,0.8,0.7,1.2,1l0,0
			c6,5,13.6,8.5,22.3,9.8c0.6,0.1,1.2,0.1,1.8,0.2l0.1,0c-0.6-0.1-1.2-0.1-1.8-0.2c2.6,0.4,5.2,0.6,8,0.6c2.9,0,5.6-0.2,8.1-0.5
			C24.7,96.7,20.7,75,20.5,65.1c0-0.5,0-1,0-1.5c0-0.2,0-0.4,0-0.5c0-1,0.1-2,0.3-3c2.4-19.1,17.9-34.6,34.7-34.6
			c5.4,0,10.3,1.6,14.3,4.4c0.9,0.6,1.8,1.3,2.7,2c-8.3-8-19.3-12.1-30.2-12.1C33,19.7,23.9,22.6,16.7,28.6"/>
	</defs>
	<clipPath id="SVGID_5_">
		<use xlink:href="#SVGID_4_"  style="overflow:visible;"/>
	</clipPath>
	
		<linearGradient id="SVGID_6_" gradientUnits="userSpaceOnUse" x1="-593.403" y1="936.963" x2="-592.1966" y2="936.963" gradientTransform="matrix(7.649 -62.1441 -62.1441 0 62799.2188 -36781.8125)">
		<stop  offset="0" style="stop-color:#F6E8D5"/>
		<stop  offset="1" style="stop-color:#D12D26"/>
	</linearGradient>
	<polygon class="st0" points="-5.7,96.7 3.7,19.7 81.9,19.7 72.4,96.7 	"/>
</g>
<path class="st1" d="M79.5,45.2H63.9c-3.2,0-6.6,1.1-9.3,3.4c-5.5,4.5-6.4,11.9-2,16.4c3.1,3.2,8,4.1,12.5,2.8
	c-4.1,2.3-8.8,3.6-13.7,3.6c-13.6,0-23.3-10.1-21.8-22.6C31,36.4,43.3,26.2,56.8,26.2c4.6,0,8.8,1.1,12.2,3.1c-3.9-2.5-8.5-4-13.7-4
	C38.5,25.4,23,40.9,20.7,60c-0.1,0.8-0.1,1.5-0.2,2.3c-0.4,7.7,0.8,34.6,36,31.8c30.3-3.6,37.8-26.7,37.8-26.7S103.3,45,79.5,45.2"
	/>
</svg>
